<svg width="160" height="46" viewBox="0 0 160 46" fill="none" xmlns="http://www.w3.org/2000/svg">
<rect width="160" height="46" fill="#2059A5"/>
<path d="M19.2567 13.7649H11.9277V30H19.2567C25.0317 30 28.4411 26.9849 28.4411 21.8825C28.4411 16.78 25.0317 13.7649 19.2567 13.7649ZM19.2335 25.2686H17.6796V18.4963H19.2335C21.2745 18.4963 22.5965 19.8415 22.5965 21.8825C22.5965 23.9235 21.2745 25.2686 19.2335 25.2686ZM40.1847 30.4639C45.7046 30.4639 49.3923 27.0313 49.3923 21.8825C49.3923 16.7336 45.7046 13.3011 40.1847 13.3011C34.6648 13.3011 31.0003 16.7336 31.0003 21.8825C31.0003 27.0313 34.6648 30.4639 40.1847 30.4639ZM40.1847 25.5006C38.1901 25.5006 36.8449 24.0626 36.8449 21.8825C36.8449 19.7023 38.1901 18.2644 40.1847 18.2644C42.2025 18.2644 43.5477 19.7023 43.5477 21.8825C43.5477 24.0626 42.2025 25.5006 40.1847 25.5006ZM50.7695 30H56.9157L58.9103 22.9957H59.003L60.9512 30H66.0073L68.0019 22.8798H68.0947L70.0197 30H76.189L71.62 13.7649H65.9145L63.5257 22.068H63.4329L61.0904 13.7649H55.3385L50.7695 30ZM85.4647 30H91.2166V13.7649H85.4647V30ZM112.07 30L105.901 21.8825L111.606 13.7649H104.926L100.218 20.3749V13.7649H94.4665V30H100.218V23.5292L105.274 30H112.07ZM127.721 18.1716V13.7649H114.385V30H127.721V25.5933H120.137V24.0162H126.26V19.7255H120.137V18.1716H127.721ZM129.684 30H135.807L136.526 28.0286H142.139L142.858 30H148.981L142.162 13.7649H136.526L129.684 30ZM138.08 23.8075L139.286 20.259H139.379L140.585 23.8075H138.08Z" fill="#F6D84C"/>
</svg>
