<svg width="128" height="110" viewBox="0 0 128 110" fill="none" xmlns="http://www.w3.org/2000/svg">
<path fill-rule="evenodd" clip-rule="evenodd" d="M2.29883 3.00684C2.29883 2.73069 2.52269 2.50684 2.79883 2.50684H14.2387C14.8801 2.50684 15.4343 2.95489 15.5687 3.58205L18.1383 15.5733H114.432C115.371 15.5733 116.079 16.4269 115.906 17.3501L109.893 49.3744C109.69 50.4603 108.797 51.2836 107.698 51.3993L27.2368 59.8689L28.9654 71.9693C29.1414 73.2009 30.1962 74.1158 31.4403 74.1158H102.617C102.893 74.1158 103.117 74.3396 103.117 74.6158C103.117 74.8919 102.893 75.1158 102.617 75.1158H31.4403C29.6985 75.1158 28.2218 73.835 27.9755 72.1107L26.1757 59.5119L17.2452 16.1781L17.2447 16.1761L14.5909 3.79158C14.5553 3.62549 14.4085 3.50684 14.2387 3.50684H2.79883C2.52269 3.50684 2.29883 3.28298 2.29883 3.00684ZM18.3476 16.5733L27.0667 58.8813L107.593 50.4048C108.253 50.3354 108.788 49.8414 108.911 49.1898L114.923 17.1656C114.981 16.8578 114.745 16.5733 114.432 16.5733H18.3476ZM41.8479 85.9658C36.1318 85.9658 31.498 90.5996 31.498 96.3157C31.498 102.032 36.1318 106.665 41.8479 106.665C47.5639 106.665 52.1977 102.032 52.1977 96.3157C52.1977 90.5996 47.5639 85.9658 41.8479 85.9658ZM30.498 96.3157C30.498 90.0473 35.5795 84.9658 41.8479 84.9658C48.1162 84.9658 53.1977 90.0473 53.1977 96.3157C53.1977 102.584 48.1162 107.665 41.8479 107.665C35.5795 107.665 30.498 102.584 30.498 96.3157ZM79.2402 96.3156C79.2402 90.5995 83.874 85.9657 89.5901 85.9657C95.3061 85.9657 99.9399 90.5995 99.9399 96.3156C99.9399 102.032 95.3061 106.665 89.5901 106.665C83.874 106.665 79.2402 102.032 79.2402 96.3156ZM89.5901 84.9657C83.3217 84.9657 78.2402 90.0472 78.2402 96.3156C78.2402 102.584 83.3217 107.665 89.5901 107.665C95.8584 107.665 100.94 102.584 100.94 96.3156C100.94 90.0472 95.8584 84.9657 89.5901 84.9657Z" fill="#262C29"/>
<path d="M15.5687 3.58205L17.0354 3.26775V3.26775L15.5687 3.58205ZM18.1383 15.5733L16.6716 15.8876L16.9256 17.0733H18.1383V15.5733ZM115.906 17.3501L114.432 17.0733V17.0733L115.906 17.3501ZM109.893 49.3744L111.368 49.6512V49.6512L109.893 49.3744ZM107.698 51.3993L107.855 52.8911L107.698 51.3993ZM27.2368 59.8689L27.0798 58.3772L25.5318 58.5401L25.7519 60.0811L27.2368 59.8689ZM28.9654 71.9693L27.4805 72.1814L28.9654 71.9693ZM27.9755 72.1107L29.4604 71.8986V71.8986L27.9755 72.1107ZM26.1757 59.5119L27.6606 59.2998L27.6541 59.2542L27.6448 59.2091L26.1757 59.5119ZM17.2452 16.1781L18.7143 15.8753L18.7118 15.8637L17.2452 16.1781ZM17.2447 16.1761L15.778 16.4904L15.7781 16.4905L17.2447 16.1761ZM14.5909 3.79158L16.0576 3.47728L16.0576 3.47728L14.5909 3.79158ZM27.0667 58.8813L25.5976 59.1841L25.872 60.5154L27.2237 60.3731L27.0667 58.8813ZM18.3476 16.5733V15.0733H16.507L16.8785 16.8761L18.3476 16.5733ZM107.593 50.4048L107.436 48.913V48.913L107.593 50.4048ZM108.911 49.1898L107.436 48.913V48.9131L108.911 49.1898ZM114.923 17.1656L116.398 17.4424V17.4424L114.923 17.1656ZM2.79883 1.00684C1.69426 1.00684 0.798828 1.90227 0.798828 3.00684H3.79883C3.79883 3.55912 3.35111 4.00684 2.79883 4.00684V1.00684ZM14.2387 1.00684H2.79883V4.00684H14.2387V1.00684ZM17.0354 3.26775C16.7528 1.94899 15.5874 1.00684 14.2387 1.00684V4.00684C14.1728 4.00684 14.1158 3.96079 14.102 3.89634L17.0354 3.26775ZM19.605 15.259L17.0354 3.26775L14.102 3.89634L16.6716 15.8876L19.605 15.259ZM114.432 14.0733H18.1383V17.0733H114.432V14.0733ZM117.38 17.6269C117.727 15.7804 116.311 14.0733 114.432 14.0733V17.0733V17.0733L117.38 17.6269ZM111.368 49.6512L117.38 17.6269L114.432 17.0733L108.419 49.0976L111.368 49.6512ZM107.855 52.8911C109.613 52.706 111.041 51.3887 111.368 49.6512L108.419 49.0976C108.338 49.532 107.981 49.8613 107.541 49.9076L107.855 52.8911ZM27.3938 61.3607L107.855 52.8911L107.541 49.9076L27.0798 58.3772L27.3938 61.3607ZM30.4504 71.7572L28.7217 59.6568L25.7519 60.0811L27.4805 72.1814L30.4504 71.7572ZM31.4403 72.6158C30.9427 72.6158 30.5207 72.2498 30.4504 71.7572L27.4805 72.1814C27.762 74.152 29.4497 75.6158 31.4403 75.6158V72.6158ZM102.617 72.6158H31.4403V75.6158H102.617V72.6158ZM104.617 74.6158C104.617 73.5112 103.722 72.6158 102.617 72.6158V75.6158C102.065 75.6158 101.617 75.168 101.617 74.6158H104.617ZM102.617 76.6158C103.722 76.6158 104.617 75.7203 104.617 74.6158H101.617C101.617 74.0635 102.065 73.6158 102.617 73.6158V76.6158ZM31.4403 76.6158H102.617V73.6158H31.4403V76.6158ZM26.4906 72.3229C26.8425 74.7861 28.9521 76.6158 31.4403 76.6158V73.6158C30.445 73.6158 29.6012 72.8839 29.4604 71.8986L26.4906 72.3229ZM24.6907 59.724L26.4906 72.3229L29.4604 71.8986L27.6606 59.2998L24.6907 59.724ZM15.776 16.4808L24.7065 59.8147L27.6448 59.2091L18.7143 15.8753L15.776 16.4808ZM15.7781 16.4905L15.7785 16.4925L18.7118 15.8637L18.7114 15.8617L15.7781 16.4905ZM13.1242 4.10587L15.778 16.4904L18.7114 15.8618L16.0576 3.47728L13.1242 4.10587ZM14.2387 5.00684C13.7012 5.00684 13.2368 4.63139 13.1242 4.10588L16.0576 3.47728C15.8738 2.61959 15.1158 2.00684 14.2387 2.00684V5.00684ZM2.79883 5.00684H14.2387V2.00684H2.79883V5.00684ZM0.798828 3.00684C0.798828 4.11141 1.69426 5.00684 2.79883 5.00684V2.00684C3.35111 2.00684 3.79883 2.45455 3.79883 3.00684H0.798828ZM28.5358 58.5785L19.8167 16.2705L16.8785 16.8761L25.5976 59.1841L28.5358 58.5785ZM107.436 48.913L26.9097 57.3895L27.2237 60.3731L107.75 51.8966L107.436 48.913ZM107.436 48.9131L107.436 48.913L107.75 51.8966C109.069 51.7578 110.14 50.7698 110.385 49.4666L107.436 48.9131ZM113.449 16.8888L107.436 48.913L110.385 49.4666L116.398 17.4424L113.449 16.8888ZM114.432 18.0733C113.806 18.0733 113.333 17.5043 113.449 16.8888L116.398 17.4424C116.629 16.2114 115.684 15.0733 114.432 15.0733V18.0733ZM18.3476 18.0733H114.432V15.0733H18.3476V18.0733ZM32.998 96.3157C32.998 91.428 36.9603 87.4658 41.8479 87.4658V84.4658C35.3034 84.4658 29.998 89.7712 29.998 96.3157H32.998ZM41.8479 105.165C36.9603 105.165 32.998 101.203 32.998 96.3157H29.998C29.998 102.86 35.3034 108.165 41.8479 108.165V105.165ZM50.6977 96.3157C50.6977 101.203 46.7355 105.165 41.8479 105.165V108.165C48.3924 108.165 53.6977 102.86 53.6977 96.3157H50.6977ZM41.8479 87.4658C46.7355 87.4658 50.6977 91.428 50.6977 96.3157H53.6977C53.6977 89.7712 48.3924 84.4658 41.8479 84.4658V87.4658ZM41.8479 83.4658C34.7511 83.4658 28.998 89.2189 28.998 96.3157H31.998C31.998 90.8757 36.408 86.4658 41.8479 86.4658V83.4658ZM54.6977 96.3157C54.6977 89.2189 48.9447 83.4658 41.8479 83.4658V86.4658C47.2878 86.4658 51.6977 90.8757 51.6977 96.3157H54.6977ZM41.8479 109.165C48.9447 109.165 54.6977 103.412 54.6977 96.3157H51.6977C51.6977 101.756 47.2878 106.165 41.8479 106.165V109.165ZM28.998 96.3157C28.998 103.412 34.7511 109.165 41.8479 109.165V106.165C36.408 106.165 31.998 101.756 31.998 96.3157H28.998ZM89.5901 84.4657C83.0456 84.4657 77.7402 89.7711 77.7402 96.3156H80.7402C80.7402 91.428 84.7024 87.4657 89.5901 87.4657V84.4657ZM101.44 96.3156C101.44 89.7711 96.1346 84.4657 89.5901 84.4657V87.4657C94.4777 87.4657 98.4399 91.428 98.4399 96.3156H101.44ZM89.5901 108.165C96.1346 108.165 101.44 102.86 101.44 96.3156H98.4399C98.4399 101.203 94.4777 105.165 89.5901 105.165V108.165ZM77.7402 96.3156C77.7402 102.86 83.0456 108.165 89.5901 108.165V105.165C84.7024 105.165 80.7402 101.203 80.7402 96.3156H77.7402ZM79.7402 96.3156C79.7402 90.8757 84.1502 86.4657 89.5901 86.4657V83.4657C82.4933 83.4657 76.7402 89.2188 76.7402 96.3156H79.7402ZM89.5901 106.165C84.1502 106.165 79.7402 101.755 79.7402 96.3156H76.7402C76.7402 103.412 82.4933 109.165 89.5901 109.165V106.165ZM99.4399 96.3156C99.4399 101.755 95.03 106.165 89.5901 106.165V109.165C96.6868 109.165 102.44 103.412 102.44 96.3156H99.4399ZM89.5901 86.4657C95.03 86.4657 99.4399 90.8757 99.4399 96.3156H102.44C102.44 89.2188 96.6868 83.4657 89.5901 83.4657V86.4657Z" fill="black"/>
<rect x="97" width="30.3255" height="30.3255" rx="15.1628" fill="#F6D84C"/>
<path d="M106 13.5L111.5 19L119.5 11" stroke="#2059A5" stroke-width="3"/>
</svg>
