<?xml version="1.0" encoding="UTF-8" standalone="no"?>
<svg
   xmlns:dc="http://purl.org/dc/elements/1.1/"
   xmlns:cc="http://creativecommons.org/ns#"
   xmlns:rdf="http://www.w3.org/1999/02/22-rdf-syntax-ns#"
   xmlns:svg="http://www.w3.org/2000/svg"
   xmlns="http://www.w3.org/2000/svg"
   xmlns:sodipodi="http://sodipodi.sourceforge.net/DTD/sodipodi-0.dtd"
   xmlns:inkscape="http://www.inkscape.org/namespaces/inkscape"
   width="14"
   height="10.292969"
   viewBox="0 0 14 10.292969"
   version="1.1"
   id="svg6"
   sodipodi:docname="email.svg"
   style="fill:none"
   inkscape:version="0.92.3 (2405546, 2018-03-11)">
  <metadata
     id="metadata12">
    <rdf:RDF>
      <cc:Work
         rdf:about="">
        <dc:format>image/svg+xml</dc:format>
        <dc:type
           rdf:resource="http://purl.org/dc/dcmitype/StillImage" />
        <dc:title></dc:title>
      </cc:Work>
    </rdf:RDF>
  </metadata>
  <defs
     id="defs10" />
  <sodipodi:namedview
     pagecolor="#ffffff"
     bordercolor="#666666"
     borderopacity="1"
     objecttolerance="10"
     gridtolerance="10"
     guidetolerance="10"
     inkscape:pageopacity="0"
     inkscape:pageshadow="2"
     inkscape:window-width="1366"
     inkscape:window-height="705"
     id="namedview8"
     showgrid="false"
     fit-margin-top="0"
     fit-margin-left="0"
     fit-margin-right="0"
     fit-margin-bottom="0"
     inkscape:zoom="21.454545"
     inkscape:cx="7"
     inkscape:cy="5.146484"
     inkscape:window-x="-8"
     inkscape:window-y="-8"
     inkscape:window-maximized="1"
     inkscape:current-layer="svg6" />
  <path
     id="path4"
     style="color:#000000;font-style:normal;font-variant:normal;font-weight:normal;font-stretch:normal;font-size:medium;line-height:normal;font-family:sans-serif;font-variant-ligatures:normal;font-variant-position:normal;font-variant-caps:normal;font-variant-numeric:normal;font-variant-alternates:normal;font-feature-settings:normal;text-indent:0;text-align:start;text-decoration:none;text-decoration-line:none;text-decoration-style:solid;text-decoration-color:#000000;letter-spacing:normal;word-spacing:normal;text-transform:none;writing-mode:lr-tb;direction:ltr;text-orientation:mixed;dominant-baseline:auto;baseline-shift:baseline;text-anchor:start;white-space:normal;shape-padding:0;clip-rule:nonzero;display:inline;overflow:visible;visibility:visible;opacity:1;isolation:auto;mix-blend-mode:normal;color-interpolation:sRGB;color-interpolation-filters:linearRGB;solid-color:#000000;solid-opacity:1;vector-effect:none;fill:#000000;fill-opacity:1;fill-rule:nonzero;stroke:none;stroke-width:1;stroke-linecap:round;stroke-linejoin:round;stroke-miterlimit:4;stroke-dasharray:none;stroke-dashoffset:0;stroke-opacity:1;color-rendering:auto;image-rendering:auto;shape-rendering:auto;text-rendering:auto;enable-background:accumulate"
     d="m 0.60351562,0.1875 a 0.50005,0.50005 0 0 0 -0.296875,0.8964844 L 5.3964844,5.1289063 c 0.9361942,0.7438598 2.2688919,0.7438633 3.2050781,0 L 13.693359,1.0839844 A 0.50039851,0.50039851 0 1 0 13.070312,0.30078126 L 7.9804688,4.3457032 c -0.5762338,0.4578567 -1.3846918,0.4578601 -1.9609376,0 L 0.92773438,0.30078126 A 0.50005,0.50005 0 0 0 0.60351562,0.1875 Z M 1.3847656,0 C 0.62663227,0 0,0.62467914 0,1.3828125 V 8.9101563 C 0,9.6682894 0.62663213,10.292968 1.3847656,10.292968 H 12.615234 C 13.373368,10.292968 14,9.6682894 14,8.9101563 V 1.3828125 C 14,0.62467914 13.373368,1e-8 12.615234,0 Z m 0,0.99999998 H 12.615234 C 12.836665,0.99999998 13,1.1613819 13,1.3828125 v 7.5273438 c 0,0.2214305 -0.163335,0.3828125 -0.384766,0.3828125 H 1.3847656 C 1.1633351,9.2929688 1,9.1315868 1,8.9101563 V 1.3828125 C 1,1.1613819 1.163335,0.99999998 1.3847656,0.99999998 Z"
     inkscape:connector-curvature="0" />
</svg>
