<?xml version="1.0" encoding="UTF-8" standalone="no"?>
<svg
   xmlns:dc="http://purl.org/dc/elements/1.1/"
   xmlns:cc="http://creativecommons.org/ns#"
   xmlns:rdf="http://www.w3.org/1999/02/22-rdf-syntax-ns#"
   xmlns:svg="http://www.w3.org/2000/svg"
   xmlns="http://www.w3.org/2000/svg"
   xmlns:sodipodi="http://sodipodi.sourceforge.net/DTD/sodipodi-0.dtd"
   xmlns:inkscape="http://www.inkscape.org/namespaces/inkscape"
   width="10.999654"
   height="14.005159"
   viewBox="0 0 10.999654 14.005159"
   version="1.1"
   id="svg4"
   sodipodi:docname="phone.svg"
   style="fill:none"
   inkscape:version="0.92.3 (2405546, 2018-03-11)">
  <metadata
     id="metadata10">
    <rdf:RDF>
      <cc:Work
         rdf:about="">
        <dc:format>image/svg+xml</dc:format>
        <dc:type
           rdf:resource="http://purl.org/dc/dcmitype/StillImage" />
        <dc:title></dc:title>
      </cc:Work>
    </rdf:RDF>
  </metadata>
  <defs
     id="defs8" />
  <sodipodi:namedview
     pagecolor="#ffffff"
     bordercolor="#666666"
     borderopacity="1"
     objecttolerance="10"
     gridtolerance="10"
     guidetolerance="10"
     inkscape:pageopacity="0"
     inkscape:pageshadow="2"
     inkscape:window-width="1366"
     inkscape:window-height="705"
     id="namedview6"
     showgrid="false"
     fit-margin-top="0"
     fit-margin-left="0"
     fit-margin-right="0"
     fit-margin-bottom="0"
     inkscape:zoom="16.857143"
     inkscape:cx="5.4986656"
     inkscape:cy="6.995081"
     inkscape:window-x="-8"
     inkscape:window-y="-8"
     inkscape:window-maximized="1"
     inkscape:current-layer="svg4" />
  <path
     id="path2"
     style="color:#000000;font-style:normal;font-variant:normal;font-weight:normal;font-stretch:normal;font-size:medium;line-height:normal;font-family:sans-serif;font-variant-ligatures:normal;font-variant-position:normal;font-variant-caps:normal;font-variant-numeric:normal;font-variant-alternates:normal;font-feature-settings:normal;text-indent:0;text-align:start;text-decoration:none;text-decoration-line:none;text-decoration-style:solid;text-decoration-color:#000000;letter-spacing:normal;word-spacing:normal;text-transform:none;writing-mode:lr-tb;direction:ltr;text-orientation:mixed;dominant-baseline:auto;baseline-shift:baseline;text-anchor:start;white-space:normal;shape-padding:0;clip-rule:nonzero;display:inline;overflow:visible;visibility:visible;opacity:1;isolation:auto;mix-blend-mode:normal;color-interpolation:sRGB;color-interpolation-filters:linearRGB;solid-color:#000000;solid-opacity:1;vector-effect:none;fill:#000000;fill-opacity:1;fill-rule:nonzero;stroke:none;stroke-width:1;stroke-linecap:butt;stroke-linejoin:miter;stroke-miterlimit:4;stroke-dasharray:none;stroke-dashoffset:0;stroke-opacity:1;color-rendering:auto;image-rendering:auto;shape-rendering:auto;text-rendering:auto;enable-background:accumulate"
     d="M 3.7291344,0.02960993 C 3.2644693,-0.07015896 2.9534958,0.10045228 2.5416344,0.2698443 2.1297729,0.43923633 1.6799158,0.66638382 1.2721031,0.8870318 0.31550513,1.4045947 -0.19437733,2.5109898 0.06897808,3.5940631 0.39708954,4.94345 1.0637491,7.0318906 2.3775718,9.1253131 3.7247904,11.271932 5.3143694,12.725675 6.3502281,13.53547 c 0.7986481,0.624302 1.899665,0.615666 2.7109375,0.03711 0.3974897,-0.28346 0.833555,-0.613848 1.1914064,-0.943359 0.178926,-0.164756 0.33799,-0.327645 0.46875,-0.5 0.130761,-0.172356 0.254324,-0.348016 0.273438,-0.626953 C 11.051321,10.678607 10.609258,9.8708093 10.102182,9.1975787 9.8486436,8.8609634 9.5715616,8.5637797 9.285775,8.3401568 8.9999882,8.1165339 8.7155122,7.9169144 8.2916344,7.9671099 7.8213568,8.0227931 7.3861746,8.2376139 7.0279625,8.4300006 6.8909943,8.5035627 6.8888934,8.5133766 6.7877281,8.5745318 6.6198189,8.4189748 6.1806377,8.047971 5.535775,7.0296099 4.8822382,5.997551 4.7377717,5.4100988 4.6783531,5.2073443 4.7785571,5.1326695 4.7935273,5.1306482 4.9264,5.0198443 5.2403874,4.758007 5.606724,4.4300252 5.8404625,4.0159381 6.0639315,3.6200441 5.9696252,3.2754415 5.8697594,2.9046099 5.7698935,2.5337784 5.6017209,2.1359557 5.39515,1.7503131 5.188579,1.3646704 4.9447011,0.99491088 4.6783531,0.68976618 4.4120051,0.38462148 4.142749,0.11842106 3.7291344,0.02960993 Z M 3.52015,1.0081256 c 0.00328,7.043e-4 0.205683,0.1103463 0.4042968,0.3378906 0.1986139,0.2275443 0.4131473,0.5470824 0.5898438,0.8769531 0.1766965,0.3298707 0.3186789,0.6742491 0.390625,0.9414063 0.071946,0.2671571 0.010389,0.4551539 0.064453,0.359375 C 4.8642972,3.7098935 4.5589101,4.0225429 4.285775,4.2503131 4.0126399,4.4780832 3.7818687,4.6350787 3.7818687,4.6350787 L 3.4889,4.8342975 3.5767906,5.1760943 c 0,0 0.284858,1.0773495 1.1152344,2.3886719 0.8279852,1.3075463 1.6582031,2.0332031 1.6582031,2.0332031 L 6.6412437,9.8499225 6.9596031,9.6350787 c 0,0 0.2303078,-0.1573454 0.5410156,-0.3242188 0.3107079,-0.1668733 0.7124607,-0.3283856 0.9082031,-0.3515624 -0.090868,0.01076 0.068224,0.020044 0.2597657,0.1699218 0.1915419,0.1498781 0.4250537,0.3914934 0.6347656,0.6699219 0.4194235,0.5568568 0.7169989,1.2905258 0.6933595,1.6347658 0.0052,-0.07609 0.0017,-0.0077 -0.07227,0.08984 -0.07398,0.09751 -0.197832,0.229384 -0.349609,0.36914 C 9.2712837,12.172405 8.8596177,12.488186 8.4810875,12.758126 8.00006,13.101169 7.4211675,13.103058 6.9674156,12.74836 5.9983143,11.990754 4.4918896,10.612325 3.2252281,8.5940631 1.9899708,6.6258255 1.3500098,4.633988 1.0396812,3.3577349 0.88229458,2.7104682 1.1803635,2.0734152 1.7486656,1.7659381 2.1387129,1.5549021 2.5653621,1.3397517 2.9205406,1.1936725 3.2757191,1.0475932 3.623395,1.0302935 3.52015,1.0081256 Z"
     inkscape:connector-curvature="0" />
</svg>
