<?xml version="1.0" encoding="UTF-8" standalone="no"?>
<svg
   xmlns:dc="http://purl.org/dc/elements/1.1/"
   xmlns:cc="http://creativecommons.org/ns#"
   xmlns:rdf="http://www.w3.org/1999/02/22-rdf-syntax-ns#"
   xmlns:svg="http://www.w3.org/2000/svg"
   xmlns="http://www.w3.org/2000/svg"
   xmlns:sodipodi="http://sodipodi.sourceforge.net/DTD/sodipodi-0.dtd"
   xmlns:inkscape="http://www.inkscape.org/namespaces/inkscape"
   width="18"
   height="18"
   viewBox="0 0 18 18"
   fill="none"
   version="1.1"
   id="svg10"
   sodipodi:docname="catalog.svg"
   inkscape:version="0.92.3 (2405546, 2018-03-11)">
  <metadata
     id="metadata16">
    <rdf:RDF>
      <cc:Work
         rdf:about="">
        <dc:format>image/svg+xml</dc:format>
        <dc:type
           rdf:resource="http://purl.org/dc/dcmitype/StillImage" />
        <dc:title></dc:title>
      </cc:Work>
    </rdf:RDF>
  </metadata>
  <defs
     id="defs14" />
  <sodipodi:namedview
     pagecolor="#ffffff"
     bordercolor="#666666"
     borderopacity="1"
     objecttolerance="10"
     gridtolerance="10"
     guidetolerance="10"
     inkscape:pageopacity="0"
     inkscape:pageshadow="2"
     inkscape:window-width="1366"
     inkscape:window-height="705"
     id="namedview12"
     showgrid="false"
     inkscape:zoom="13.111111"
     inkscape:cx="9"
     inkscape:cy="9"
     inkscape:window-x="-8"
     inkscape:window-y="-8"
     inkscape:window-maximized="1"
     inkscape:current-layer="svg10" />
  <path
     id="rect8"
     style="color:#000000;font-style:normal;font-variant:normal;font-weight:normal;font-stretch:normal;font-size:medium;line-height:normal;font-family:sans-serif;font-variant-ligatures:normal;font-variant-position:normal;font-variant-caps:normal;font-variant-numeric:normal;font-variant-alternates:normal;font-feature-settings:normal;text-indent:0;text-align:start;text-decoration:none;text-decoration-line:none;text-decoration-style:solid;text-decoration-color:#000000;letter-spacing:normal;word-spacing:normal;text-transform:none;writing-mode:lr-tb;direction:ltr;text-orientation:mixed;dominant-baseline:auto;baseline-shift:baseline;text-anchor:start;white-space:normal;shape-padding:0;clip-rule:nonzero;display:inline;overflow:visible;visibility:visible;opacity:1;isolation:auto;mix-blend-mode:normal;color-interpolation:sRGB;color-interpolation-filters:linearRGB;solid-color:#000000;solid-opacity:1;vector-effect:none;fill:#000000;fill-opacity:1;fill-rule:nonzero;stroke:none;stroke-width:2;stroke-linecap:butt;stroke-linejoin:miter;stroke-miterlimit:4;stroke-dasharray:none;stroke-dashoffset:0;stroke-opacity:1;color-rendering:auto;image-rendering:auto;shape-rendering:auto;text-rendering:auto;enable-background:accumulate"
     d="m 11.689453,9.6894531 c -1.090703,0 -1.9999999,0.9092969 -1.9999999,1.9999999 V 16 c 0,1.090703 0.9092969,2 1.9999999,2 H 16 c 1.090703,0 2,-0.909297 2,-2 V 11.689453 C 18,10.59875 17.090703,9.6894531 16,9.6894531 Z m 0,1.9999999 H 16 V 16 H 11.689453 Z M 11.689453,0 C 10.59875,0 9.6894531,0.90929723 9.6894531,2 v 4.3125 c 0,1.0907028 0.9092969,2 1.9999999,2 H 16 c 1.090703,0 2,-0.9092972 2,-2 V 2 C 18,0.90929723 17.090703,0 16,0 Z m 0,2 H 16 V 6.3125 H 11.689453 Z M 2,9.6894531 c -1.09070277,0 -2,0.9092969 -2,1.9999999 V 16 c 0,1.090703 0.90929723,2 2,2 h 4.3125 c 1.0907028,0 2,-0.909297 2,-2 v -4.310547 c 0,-1.090703 -0.9092972,-1.9999999 -2,-1.9999999 z M 2,11.689453 H 6.3125 V 16 H 2 Z M 2,0 C 0.90929723,0 0,0.90929723 0,2 v 4.3125 c 0,1.0907028 0.90929723,2 2,2 h 4.3125 c 1.0907028,0 2,-0.9092972 2,-2 V 2 c 0,-1.09070277 -0.9092972,-2 -2,-2 z M 2,2 H 6.3125 V 6.3125 H 2 Z" />
</svg>
