<?xml version="1.0" encoding="UTF-8" standalone="no"?>
<svg
   xmlns:dc="http://purl.org/dc/elements/1.1/"
   xmlns:cc="http://creativecommons.org/ns#"
   xmlns:rdf="http://www.w3.org/1999/02/22-rdf-syntax-ns#"
   xmlns:svg="http://www.w3.org/2000/svg"
   xmlns="http://www.w3.org/2000/svg"
   xmlns:sodipodi="http://sodipodi.sourceforge.net/DTD/sodipodi-0.dtd"
   xmlns:inkscape="http://www.inkscape.org/namespaces/inkscape"
   width="15"
   height="14"
   viewBox="0 0 15 14"
   fill="none"
   version="1.1"
   id="svg10"
   sodipodi:docname="filter.svg"
   inkscape:version="0.92.3 (2405546, 2018-03-11)">
  <metadata
     id="metadata16">
    <rdf:RDF>
      <cc:Work
         rdf:about="">
        <dc:format>image/svg+xml</dc:format>
        <dc:type
           rdf:resource="http://purl.org/dc/dcmitype/StillImage" />
        <dc:title></dc:title>
      </cc:Work>
    </rdf:RDF>
  </metadata>
  <defs
     id="defs14" />
  <sodipodi:namedview
     pagecolor="#ffffff"
     bordercolor="#666666"
     borderopacity="1"
     objecttolerance="10"
     gridtolerance="10"
     guidetolerance="10"
     inkscape:pageopacity="0"
     inkscape:pageshadow="2"
     inkscape:window-width="1440"
     inkscape:window-height="837"
     id="namedview12"
     showgrid="false"
     inkscape:zoom="16.857143"
     inkscape:cx="7.5"
     inkscape:cy="7"
     inkscape:window-x="-8"
     inkscape:window-y="-8"
     inkscape:window-maximized="1"
     inkscape:current-layer="svg10" />
  <path
     id="circle8"
     style="color:#000000;font-style:normal;font-variant:normal;font-weight:normal;font-stretch:normal;font-size:medium;line-height:normal;font-family:sans-serif;font-variant-ligatures:normal;font-variant-position:normal;font-variant-caps:normal;font-variant-numeric:normal;font-variant-alternates:normal;font-feature-settings:normal;text-indent:0;text-align:start;text-decoration:none;text-decoration-line:none;text-decoration-style:solid;text-decoration-color:#000000;letter-spacing:normal;word-spacing:normal;text-transform:none;writing-mode:lr-tb;direction:ltr;text-orientation:mixed;dominant-baseline:auto;baseline-shift:baseline;text-anchor:start;white-space:normal;shape-padding:0;clip-rule:nonzero;display:inline;overflow:visible;visibility:visible;opacity:1;isolation:auto;mix-blend-mode:normal;color-interpolation:sRGB;color-interpolation-filters:linearRGB;solid-color:#000000;solid-opacity:1;vector-effect:none;fill:#ffffff;fill-opacity:1;fill-rule:nonzero;stroke:none;stroke-width:2;stroke-linecap:butt;stroke-linejoin:miter;stroke-miterlimit:4;stroke-dasharray:none;stroke-dashoffset:0;stroke-opacity:1;color-rendering:auto;image-rendering:auto;shape-rendering:auto;text-rendering:auto;enable-background:accumulate"
     d="m 11.2059,7.4107781 c 1.807448,0 3.294922,1.4874742 3.294922,3.2949219 0,1.807448 -1.487474,3.294922 -3.294922,3.294922 -1.8074477,0 -3.2949219,-1.487474 -3.2949219,-3.294922 0,-1.8074477 1.4874742,-3.2949219 3.2949219,-3.2949219 z m 0,2 c -0.726567,0 -1.2949219,0.5683545 -1.2949219,1.2949219 0,0.726567 0.5683549,1.294922 1.2949219,1.294922 0.726567,0 1.294922,-0.568355 1.294922,-1.294922 0,-0.7265674 -0.568355,-1.2949219 -1.294922,-1.2949219 z M 0.5,9.7050781 V 11.705078 H 8.734375 V 9.7050781 Z M 3.7949219,0 C 1.9874742,0 0.5,1.4874742 0.5,3.2949219 c 8e-8,1.8074476 1.4874743,3.2929687 3.2949219,3.2929687 1.8074475,-10e-8 3.2929686,-1.4855212 3.2929687,-3.2929687 C 7.0878906,1.4874743 5.6023695,7.8786094e-8 3.7949219,0 Z m 0,2 c 0.7265674,0 1.2929687,0.5683545 1.2929687,1.2949219 0,0.7265674 -0.5664013,1.2929687 -1.2929687,1.2929687 C 3.0683545,4.5878906 2.5,4.0214893 2.5,3.2949219 2.5,2.5683544 3.0683544,2 3.7949219,2 Z M 6.265625,2.2949219 v 2 H 14.5 v -2 z" />
  <path
     style="opacity:1;fill:#ffffff;fill-opacity:1;stroke:#197261;stroke-width:0.00338136;stroke-miterlimit:4;stroke-dasharray:none;stroke-opacity:1"
     d="M 8.0698159,11.613513 C 8.0530924,11.586454 8.0098918,11.379568 7.9738146,11.153767 7.9090062,10.748143 7.9302184,10.360513 8.0409171,9.9275424 8.0970444,9.7080141 8.1016691,9.7050847 8.392117,9.7050847 h 0.2943237 v 0.9788133 0.978814 H 8.3933315 c -0.16121,0 -0.306792,-0.02214 -0.3235156,-0.0492 z"
     id="path4580"
     inkscape:connector-curvature="0" />
</svg>
