<svg width="24" height="24" viewBox="0 0 24 24" fill="none" xmlns="http://www.w3.org/2000/svg">
<path d="M2.64471 7.36135C2.63528 10.4527 2.63528 13.5441 2.64471 16.6355C2.6678 19.0774 4.76101 21.3275 7.36136 21.3521C7.36151 21.3521 7.36166 21.3521 7.3618 21.3521L7.36038 21.5038C10.4524 21.5132 13.5444 21.5132 16.6364 21.5038L2.64471 7.36135ZM2.64471 7.36135C2.66931 4.79776 4.92491 2.65245 7.39361 2.64471L2.64471 7.36135ZM16.6473 0.856524L16.6464 0.856521C13.5477 0.845521 10.4491 0.845521 7.35042 0.856518L7.34953 0.856526C3.76478 0.89033 0.8871 3.98162 0.856524 7.34958L0.856521 7.35042C0.845521 10.4491 0.845521 13.5477 0.856518 16.6464L0.856526 16.6473C0.890331 20.2241 3.98314 23.1081 7.34951 23.1403L7.35042 23.1403C10.4491 23.1513 13.5477 23.1513 16.6464 23.1403L16.6473 23.1403C20.2243 23.1065 23.1081 19.9993 23.1403 16.6473L23.1403 16.6464C23.1513 13.5477 23.1513 10.4491 23.1403 7.35042L23.1403 7.34952C23.1065 3.77265 20.0121 0.88871 16.6473 0.856524ZM21.3521 16.6354C21.3275 19.2359 19.0836 21.329 16.6354 21.3521L21.5038 7.36038C21.5132 10.4524 21.5132 13.5444 21.5038 16.6364L21.3521 16.635C21.3521 16.6351 21.3521 16.6353 21.3521 16.6354ZM16.6355 2.64471C19.1946 2.66932 21.329 4.90335 21.3521 7.36134L10.475 2.64261C12.5286 2.64052 14.5819 2.63842 16.6355 2.64471Z" fill="#2059A5" stroke="#2059A5" stroke-width="0.303458"/>
<path d="M12.0375 6.33558V6.33558H12.0361H12.036H12.0359H12.0358H12.0358H12.0357H12.0356H12.0355H12.0355H12.0354H12.0353H12.0352H12.0352H12.0351H12.035H12.0349H12.0349H12.0348H12.0347H12.0347H12.0346H12.0345H12.0344H12.0344H12.0343H12.0342H12.0341H12.0341H12.034H12.0339H12.0338H12.0338H12.0337H12.0336H12.0335H12.0335H12.0334H12.0333H12.0333H12.0332H12.0331H12.033H12.033H12.0329H12.0328H12.0327H12.0327H12.0326H12.0325H12.0324H12.0324H12.0323H12.0322H12.0321H12.0321H12.032H12.0319H12.0319H12.0318H12.0317H12.0316H12.0316H12.0315H12.0314H12.0313H12.0313H12.0312H12.0311H12.031H12.031H12.0309H12.0308H12.0307H12.0307H12.0306H12.0305H12.0305H12.0304H12.0303H12.0302H12.0302H12.0301H12.03H12.0299H12.0299H12.0298H12.0297H12.0296H12.0296H12.0295H12.0294H12.0293H12.0293H12.0292H12.0291H12.0291H12.029H12.0289H12.0288H12.0288H12.0287H12.0286H12.0285H12.0285H12.0284H12.0283H12.0282H12.0282H12.0281H12.028H12.0279H12.0279H12.0278H12.0277H12.0277H12.0276H12.0275H12.0274H12.0274H12.0273H12.0272H12.0271H12.0271H12.027H12.0269H12.0268H12.0268H12.0267H12.0266H12.0266H12.0265H12.0264H12.0263H12.0263H12.0262H12.0261H12.026H12.026H12.0259H12.0258H12.0257H12.0257H12.0256H12.0255H12.0254H12.0254H12.0253H12.0252H12.0252H12.0251H12.025H12.0249H12.0249H12.0248H12.0247H12.0246H12.0246H12.0245H12.0244H12.0243H12.0243H12.0242H12.0241H12.024H12.024H12.0239H12.0238H12.0238H12.0237H12.0236H12.0235H12.0235H12.0234H12.0233H12.0232H12.0232H12.0231H12.023H12.0229H12.0229H12.0228H12.0227H12.0226H12.0226H12.0225H12.0224H12.0224H12.0223H12.0222H12.0221H12.0221H12.022H12.0219H12.0218H12.0218H12.0217H12.0216H12.0215H12.0215H12.0214H12.0213H12.0212H12.0212H12.0211H12.021H12.021H12.0209H12.0208H12.0207H12.0207H12.0206H12.0205H12.0204H12.0204H12.0203H12.0202H12.0201H12.0201H12.02H12.0199H12.0198H12.0198H12.0197H12.0196H12.0196H12.0195H12.0194H12.0193H12.0193H12.0192H12.0191H12.019H12.019H12.0189H12.0188H12.0187H12.0187H12.0186H12.0185H12.0184H12.0184H12.0183H12.0182H12.0182H12.0181H12.018H12.0179H12.0179H12.0178H12.0177H12.0176H12.0176H12.0175H12.0174H12.0173H12.0173H12.0172H12.0171H12.017H12.017H12.0169H12.0168H12.0168H12.0167H12.0166H12.0165H12.0165H12.0164H12.0163H12.0162H12.0162H12.0161H12.016H12.0159H12.0159H12.0158H12.0157H12.0157H12.0156H12.0155H12.0154H12.0154H12.0153H12.0152H12.0151H12.0151H12.015H12.0149H12.0148H12.0148H12.0147H12.0146H12.0145H12.0145H12.0144H12.0143H12.0143H12.0142H12.0141H12.014H12.014H12.0139H12.0138H12.0137H12.0137H12.0136H12.0135H12.0134H12.0134H12.0133H12.0132H12.0131H12.0131H12.013H12.0129H12.0129H12.0128H12.0127H12.0126H12.0126H12.0125H12.0124H12.0123H12.0123H12.0122H12.0121H12.012H12.012H12.0119H12.0118H12.0117H12.0117H12.0116H12.0115H12.0115H12.0114H12.0113H12.0112H12.0112H12.0111H12.011H12.0109H12.0109H12.0108H12.0107H12.0106H12.0106H12.0105H12.0104H12.0103H12.0103H12.0102H12.0101H12.0101H12.01H12.0099H12.0098H12.0098H12.0097H12.0096H12.0095H12.0095H12.0094H12.0093H12.0092H12.0092H12.0091H12.009H12.0089H12.0089H12.0088H12.0087H12.0087H12.0086H12.0085H12.0084H12.0084H12.0083H12.0082H12.0081H12.0081H12.008H12.0079H12.0078H12.0078H12.0077H12.0076H12.0075H12.0075H12.0074H12.0073H12.0073H12.0072H12.0071H12.007H12.007H12.0069H12.0068H12.0067H12.0067H12.0066H12.0065H12.0064H12.0064H12.0063H12.0062H12.0061H12.0061H12.006H12.0059H12.0059H12.0058H12.0057H12.0056H12.0056H12.0055H12.0054H12.0053H12.0053H12.0052H12.0051H12.005H12.005H12.0049H12.0048H12.0048H12.0047H12.0046H12.0045H12.0045H12.0044H12.0043H12.0042H12.0042H12.0041H12.004H12.0039H12.0039H12.0038H12.0037H12.0036H12.0036H12.0035H12.0034H12.0034H12.0033H12.0032H12.0031H12.0031H12.003H12.0029H12.0028H12.0028H12.0027H12.0026H12.0025H12.0025H12.0024H12.0023H12.0022H12.0022H12.0021H12.002H12.002H12.0019H12.0018H12.0017H12.0017H12.0016H12.0015H12.0014H12.0014H12.0013H12.0012H12.0011H12.0011H12.001H12.0009H12.0008H12.0008H12.0007H12.0006H12.0006H12.0005H12.0004H12.0003H12.0003H12.0002H12.0001H12H12H11.9999H11.9998H11.9997H11.9997H11.9996H11.9995H11.9994H11.9994H11.9993H11.9992H11.9992H11.9991H11.999H11.9989H11.9989H11.9988H11.9987H11.9986H11.9986H11.9985H11.9984L11.9983 6.33558L11.9979 6.33558C8.99592 6.34527 6.47699 8.88069 6.34933 11.7376L6.34933 11.7377C6.24431 14.129 7.81633 16.4848 10.0561 17.3041C12.0593 18.0376 14.3933 17.5244 15.9036 16.0869L15.9037 16.0868C17.2606 14.7913 17.9025 12.7976 17.5617 10.9563L17.4125 10.9839L17.5617 10.9563C17.0833 8.37172 14.6512 6.35981 12.0375 6.33558ZM8.21894 11.1881L8.21895 11.1881C8.58107 9.471 10.2297 8.14378 11.9741 8.1269C12.5449 8.12546 13.118 8.24669 13.6325 8.48657C15.5219 9.36939 16.3689 11.8615 15.4741 13.6887L15.4741 13.6888C14.6094 15.4573 12.2869 16.3104 10.4957 15.5529L10.4956 15.5529C8.85513 14.8601 7.85208 12.9258 8.21894 11.1881Z" fill="#2059A5" stroke="#2059A5" stroke-width="0.303458"/>
</svg>
