<?xml version="1.0" encoding="UTF-8" standalone="no"?>
<svg
   xmlns:dc="http://purl.org/dc/elements/1.1/"
   xmlns:cc="http://creativecommons.org/ns#"
   xmlns:rdf="http://www.w3.org/1999/02/22-rdf-syntax-ns#"
   xmlns:svg="http://www.w3.org/2000/svg"
   xmlns="http://www.w3.org/2000/svg"
   xmlns:sodipodi="http://sodipodi.sourceforge.net/DTD/sodipodi-0.dtd"
   xmlns:inkscape="http://www.inkscape.org/namespaces/inkscape"
   width="22.416016"
   height="22"
   viewBox="0 0 22.416016 22"
   version="1.1"
   id="svg6"
   sodipodi:docname="user.svg"
   style="fill:none"
   inkscape:version="0.92.3 (2405546, 2018-03-11)">
  <metadata
     id="metadata12">
    <rdf:RDF>
      <cc:Work
         rdf:about="">
        <dc:format>image/svg+xml</dc:format>
        <dc:type
           rdf:resource="http://purl.org/dc/dcmitype/StillImage" />
        <dc:title></dc:title>
      </cc:Work>
    </rdf:RDF>
  </metadata>
  <defs
     id="defs10" />
  <sodipodi:namedview
     pagecolor="#ffffff"
     bordercolor="#666666"
     borderopacity="1"
     objecttolerance="10"
     gridtolerance="10"
     guidetolerance="10"
     inkscape:pageopacity="0"
     inkscape:pageshadow="2"
     inkscape:window-width="1366"
     inkscape:window-height="705"
     id="namedview8"
     showgrid="false"
     fit-margin-top="0"
     fit-margin-left="0"
     fit-margin-right="0"
     fit-margin-bottom="0"
     inkscape:zoom="10.727273"
     inkscape:cx="11.5"
     inkscape:cy="11"
     inkscape:window-x="-8"
     inkscape:window-y="-8"
     inkscape:window-maximized="1"
     inkscape:current-layer="svg6" />
  <path
     id="path4"
     style="color:#000000;font-style:normal;font-variant:normal;font-weight:normal;font-stretch:normal;font-size:medium;line-height:normal;font-family:sans-serif;font-variant-ligatures:normal;font-variant-position:normal;font-variant-caps:normal;font-variant-numeric:normal;font-variant-alternates:normal;font-feature-settings:normal;text-indent:0;text-align:start;text-decoration:none;text-decoration-line:none;text-decoration-style:solid;text-decoration-color:#000000;letter-spacing:normal;word-spacing:normal;text-transform:none;writing-mode:lr-tb;direction:ltr;text-orientation:mixed;dominant-baseline:auto;baseline-shift:baseline;text-anchor:start;white-space:normal;shape-padding:0;clip-rule:nonzero;display:inline;overflow:visible;visibility:visible;opacity:1;isolation:auto;mix-blend-mode:normal;color-interpolation:sRGB;color-interpolation-filters:linearRGB;solid-color:#000000;solid-opacity:1;vector-effect:none;fill:#000000;fill-opacity:1;fill-rule:nonzero;stroke:none;stroke-width:2;stroke-linecap:round;stroke-linejoin:miter;stroke-miterlimit:4;stroke-dasharray:none;stroke-dashoffset:0;stroke-opacity:1;color-rendering:auto;image-rendering:auto;shape-rendering:auto;text-rendering:auto;enable-background:accumulate"
     d="m 11.460938,10.833984 c 0,0 -3.8102683,-0.238002 -6.6660161,0.904297 -1.6485279,0.659443 -2.900467,1.772936 -3.6875,2.595703 C 0.31962283,15.157656 0,16.244207 0,17.28125 V 19 c 0,1.645025 1.3550085,3 3,3 h 16.416016 c 1.644955,0 3,-1.354933 3,-3 v -1.689453 c 0,-1.027585 -0.259763,-2.169835 -1.101563,-3.03125 -0.357739,-0.366091 -0.82338,-0.778553 -1.412109,-1.185547 -1.609322,-1.112659 -2.857422,-1.404297 -2.857422,-1.404297 a 1.000245,1.000245 0 1 0 -0.423828,1.955078 c 0,0 0.7715,0.145809 2.142578,1.09375 0.474471,0.328006 0.844833,0.656744 1.121094,0.939453 0.3598,0.368185 0.53125,0.941198 0.53125,1.632813 V 19 c 0,0.564133 -0.435956,1 -1,1 H 3 C 2.4358515,20 2,19.564175 2,19 v -1.71875 c 0,-0.630357 0.1880134,-1.183125 0.5527344,-1.564453 0.667907,-0.698233 1.7465428,-1.625937 2.984375,-2.121094 2.1442521,-0.857701 5.8359376,-0.763672 5.8359376,-0.763672 a 1.0001,1.0001 0 1 0 0.08789,-1.998047 z M 11.416016,0 C 7.8840315,1.9561747e-7 5,2.8840315 5,6.4160156 c -3e-7,3.5319843 2.8840313,6.4179684 6.416016,6.4179684 3.531984,1e-6 6.417969,-2.8859839 6.417968,-6.4179684 C 17.833984,2.8840313 14.948,-1.3041165e-7 11.416016,0 Z m 0,2 c 2.451104,-1e-7 4.417968,1.9649116 4.417968,4.4160156 1e-6,2.4511042 -1.966864,4.4179684 -4.417968,4.4179684 C 8.9649116,10.833984 6.9999998,8.8671197 7,6.4160156 7,3.9649117 8.9649117,2.0000001 11.416016,2 Z"
     inkscape:connector-curvature="0" />
</svg>
