<svg width="44" height="44" viewBox="0 0 44 44" fill="none" xmlns="http://www.w3.org/2000/svg">
<path d="M40.432 5.31256H39.7568L43.7768 1.30002C44.0744 1.00272 44.0744 0.520541 43.7768 0.22323C43.4795 -0.07441 42.9973 -0.07441 42.7 0.22323L37.6181 5.31256H3.56929C2.62461 5.3146 1.71875 5.6908 1.05068 6.35885C0.3826 7.02692 0.00638842 7.93269 0.00439467 8.87747V35.1212C0.00642638 36.0659 0.382626 36.9717 1.05068 37.6398C1.71875 38.3079 2.62452 38.6841 3.56929 38.6861H4.24449L0.224495 42.6986C0.0809285 42.8409 0 43.0349 0 43.237C0 43.4392 0.0809276 43.6332 0.224495 43.7754C0.36671 43.919 0.560736 43.9999 0.762884 43.9999C0.965032 43.9999 1.15906 43.919 1.30127 43.7754L6.38315 38.6861H40.432C41.3766 38.6841 42.2825 38.3079 42.9506 37.6398C43.6187 36.9717 43.9949 36.066 43.9969 35.1212V8.87745C43.9948 7.93276 43.6186 7.02691 42.9506 6.35883C42.2825 5.69075 41.3767 5.31454 40.432 5.31255L40.432 5.31256ZM1.52104 8.87747C1.52104 8.33434 1.73673 7.81359 2.12072 7.42923C2.50504 7.04524 3.02579 6.82954 3.56896 6.82954H6.07197C5.98597 8.00793 5.47872 9.11619 4.64341 9.95192C3.80772 10.7873 2.69942 11.2945 1.52104 11.3805V8.87747ZM1.52104 12.8975C3.10199 12.8101 4.5953 12.143 5.71475 11.0233C6.83454 9.90381 7.50157 8.4105 7.58895 6.82954H36.1004L29.0995 13.8304H29.0992C27.992 12.0381 26.2477 10.731 24.2168 10.172C22.1854 9.61263 20.018 9.8422 18.1492 10.815C16.2804 11.7876 14.8491 13.4312 14.142 15.4157C13.9477 15.9531 13.8129 16.5101 13.7398 17.0766C13.7361 17.1423 13.7361 17.2083 13.7398 17.274C13.6636 17.891 13.6636 18.515 13.7398 19.1324C13.842 20.0534 14.0984 20.951 14.4983 21.7871C15.1921 23.238 16.2906 24.4574 17.6612 25.2988L13.3456 29.5843H7.58856C7.5012 28.0034 6.83414 26.5101 5.71435 25.3906C4.59491 24.2708 3.1016 23.6038 1.52065 23.5164L1.52104 12.8975ZM28.5995 16.5002C28.6629 16.7505 28.7137 17.0034 28.7512 17.2587C28.8041 17.5719 28.8295 17.8892 28.8271 18.2069C28.8274 18.4605 28.8122 18.7138 28.7817 18.9654C28.7004 19.7178 28.4929 20.4516 28.1671 21.1345C27.6135 22.3013 26.7399 23.2867 25.6485 23.9768C24.5568 24.6669 23.2921 25.0333 22.0007 25.0333C21.4166 25.0279 20.8355 24.949 20.2714 24.7983L28.5995 16.5002ZM18.7392 24.2063C17.4748 23.5247 16.4559 22.4635 15.8264 21.1724C15.4993 20.4769 15.2941 19.7302 15.2196 18.9653C15.1888 18.7137 15.1736 18.4604 15.1742 18.2068C15.1715 17.9528 15.1895 17.6992 15.2274 17.4483V17.3119V17.2208C15.2877 16.7809 15.3943 16.3488 15.546 15.9313C16.1318 14.2575 17.3458 12.8777 18.9312 12.0833C20.5165 11.2889 22.3488 11.1426 24.0398 11.6756C25.7312 12.2083 27.1489 13.3782 27.9928 14.9378L18.7392 24.2063ZM1.5219 25.0332C2.70029 25.1192 3.80855 25.6265 4.64428 26.4618C5.47963 27.2975 5.98685 28.4058 6.07284 29.5842H3.56982C3.02669 29.5842 2.50594 29.3685 2.12159 28.9845C1.7376 28.6001 1.5219 28.0794 1.5219 27.5362V25.0332ZM1.5219 30.4337C1.55441 30.4608 1.58996 30.4835 1.62823 30.5018C1.76909 30.5905 1.91605 30.6691 2.06808 30.7371L2.25771 30.813C2.3962 30.8743 2.54112 30.92 2.69011 30.9494L2.87974 30.9948C3.10492 31.0561 3.33652 31.0917 3.56982 31.1011H11.8299L9.55444 33.3766H3.56982C3.02669 33.3766 2.50594 33.1609 2.12159 32.7769C1.7376 32.3926 1.5219 31.8719 1.5219 31.3287V30.4337ZM5.76199 37.169H3.56982C3.02669 37.169 2.50594 36.9533 2.12159 36.5694C1.7376 36.185 1.5219 35.6643 1.5219 35.1211V34.2489C1.55441 34.276 1.58996 34.299 1.62823 34.3173C1.76909 34.406 1.91605 34.4846 2.06808 34.5523L2.25771 34.6281C2.3962 34.6894 2.54112 34.7351 2.69011 34.7646L2.87974 34.81V34.8103C3.10593 34.8635 3.3372 34.8916 3.56982 34.8936H8.03746L5.76199 37.169ZM42.4807 35.1211C42.4807 35.6643 42.265 36.185 41.881 36.5694C41.4967 36.9533 40.9759 37.169 40.4328 37.169H7.90093L10.1764 34.8936H40.4328C40.6518 34.8939 40.8706 34.8709 41.0849 34.8252L41.2745 34.7798C41.4235 34.7503 41.5685 34.7046 41.7069 34.6433L41.8966 34.5675C42.0486 34.4994 42.1956 34.4209 42.3364 34.3322C42.3747 34.3139 42.4102 34.2912 42.4428 34.2641L42.4807 35.1211ZM42.4807 27.5362C42.4807 28.0794 42.265 28.6001 41.881 28.9845C41.4967 29.3685 40.9759 29.5842 40.4328 29.5842H37.9297C38.0158 28.4058 38.523 27.2975 39.3583 26.4618C40.194 25.6264 41.3023 25.1192 42.4807 25.0332V27.5362ZM42.4807 23.5162C40.8997 23.6036 39.4064 24.2707 38.287 25.3904C37.1672 26.5099 36.5001 28.0032 36.4128 29.5842H31.8618C31.443 29.5842 31.1033 29.9238 31.1033 30.3426C31.1033 30.7615 31.443 31.1011 31.8618 31.1011H40.4328C40.6518 31.1015 40.8706 31.0784 41.0849 31.0327L41.2745 30.9874C41.4235 30.9579 41.5685 30.9122 41.7069 30.8509L41.8966 30.775C42.0486 30.707 42.1956 30.6284 42.3364 30.5397C42.3747 30.5214 42.4102 30.4987 42.4428 30.4717V31.3287C42.4428 31.8654 42.2321 32.3804 41.8563 32.7634C41.4804 33.1467 40.9695 33.3668 40.4327 33.3766H11.6934L13.9688 31.1012H25.035C25.4538 31.1012 25.7935 30.7615 25.7935 30.3427C25.7935 29.9238 25.4538 29.5842 25.035 29.5842H15.4858L19.066 26.0118C21.4735 26.9166 24.1638 26.6603 26.3573 25.3177C28.5508 23.9747 30.0024 21.6952 30.2916 19.1397C30.3289 18.8302 30.3468 18.5186 30.3448 18.2068C30.3475 17.8079 30.317 17.4097 30.2537 17.0159C30.1805 16.4755 30.0509 15.9442 29.867 15.4309L29.7986 15.2717L36.7008 8.36946V8.36912C37.0909 9.62128 37.8528 10.7252 38.8852 11.5338C39.9176 12.3427 41.1715 12.8181 42.4806 12.8973L42.4807 23.5162ZM42.4807 11.3804C41.3552 11.293 40.2936 10.822 39.4738 10.0462C38.6536 9.27048 38.1248 8.2367 37.9751 7.1176L38.2405 6.85213H40.4327C40.9718 6.85213 41.4895 7.06478 41.8728 7.44402C42.2561 7.82327 42.4745 8.33826 42.4806 8.87735L42.4807 11.3804Z" fill="black"/>
<path d="M28.8275 29.5842H28.069C27.6502 29.5842 27.3105 29.9239 27.3105 30.3427C27.3105 30.7616 27.6502 31.1012 28.069 31.1012H28.8275C29.2464 31.1012 29.586 30.7616 29.586 30.3427C29.586 29.9239 29.2464 29.5842 28.8275 29.5842Z" fill="black"/>
</svg>
