<svg width="40" height="41" viewBox="0 0 40 41" fill="none" xmlns="http://www.w3.org/2000/svg">
<path d="M35.5439 12.5182H31.2786V5.05703C31.2765 3.71602 30.7425 2.43022 29.7936 1.48211C28.8449 0.534287 27.5589 0.00112448 26.2176 1.41867e-05H5.07759C3.7328 -0.00316636 2.44183 0.528558 1.48935 1.47781C0.536938 2.42734 0.00118431 3.71631 0 5.06139V22.1762C0.00318054 23.5195 0.540113 24.8068 1.49223 25.7543C2.44464 26.7018 3.73421 27.2324 5.07759 27.2292H7.61853V33.0322C7.61795 33.452 7.87037 33.8305 8.2581 33.9913C8.64584 34.152 9.0923 34.063 9.3886 33.7657L15.8962 27.2291H17.1398V29.9566C17.141 31.1343 17.608 32.2639 18.439 33.099C19.27 33.9337 20.3973 34.4058 21.5752 34.4125H26.6901L32.1907 39.9047C32.487 40.2019 32.9335 40.291 33.3212 40.1302C33.7089 39.9694 33.9613 39.5907 33.9608 39.1711V34.4125H35.5441C36.7255 34.4113 37.8584 33.9415 38.6937 33.1062C39.5293 32.2709 39.9989 31.138 40 29.9566V16.9743C39.9988 15.7929 39.5293 14.66 38.6937 13.8247C37.8584 12.9894 36.7255 12.5195 35.5441 12.5184L35.5439 12.5182ZM15.4647 25.157C15.1897 25.1564 14.9257 25.2652 14.7311 25.4595L9.67411 30.5125V26.1933C9.67411 25.9183 9.56481 25.6546 9.37051 25.4603C9.17621 25.266 8.91281 25.157 8.63784 25.157H5.07713C4.28312 25.1614 3.52013 24.8497 2.95632 24.2905C2.3925 23.7313 2.07416 22.9706 2.07216 22.1765V5.06176C2.07216 4.26605 2.38935 3.50357 2.95314 2.94236C3.51725 2.38143 4.28172 2.06856 5.07713 2.07292H26.2171C27.0096 2.07292 27.7698 2.38779 28.3304 2.94843C28.8908 3.50878 29.2056 4.26893 29.2056 5.06176V22.1765C29.2036 22.9677 28.8876 23.7258 28.3275 24.2844C27.7672 24.8433 27.0082 25.157 26.2171 25.157L15.4647 25.157ZM37.9266 29.957C37.9266 30.5891 37.6757 31.1954 37.2286 31.6422C36.7816 32.0892 36.1753 32.3404 35.5432 32.3404H32.9236C32.3511 32.3404 31.8873 32.8042 31.8873 33.3767V36.6929L27.8501 32.6637H27.8498C27.6552 32.4694 27.3912 32.3607 27.1162 32.3612H21.5743C20.935 32.3667 20.3201 32.1152 19.8681 31.663C19.4159 31.2111 19.1643 30.5964 19.1701 29.957V27.2296H26.2167C27.5571 27.2284 28.8427 26.6958 29.7913 25.7489C30.74 24.8017 31.2746 23.5171 31.2778 22.1766V14.591H35.5432C36.1752 14.591 36.7815 14.8423 37.2286 15.289C37.6756 15.736 37.9266 16.3423 37.9266 16.9744L37.9266 29.957Z" fill="black"/>
<path d="M15.767 5.37603C14.5365 5.34249 13.3444 5.80801 12.4622 6.66679C11.58 7.52557 11.0827 8.70462 11.083 9.93578C11.083 10.508 11.5471 10.9721 12.1193 10.9721C12.6918 10.9721 13.1556 10.508 13.1556 9.93578C13.1532 9.26556 13.4242 8.62342 13.9059 8.15761C14.3841 7.6843 15.037 7.43072 15.7089 7.45703C16.4503 7.48392 17.1408 7.84043 17.5921 8.42913C18.0434 9.01753 18.2085 9.7768 18.0422 10.4997C17.876 11.2226 17.396 11.8335 16.7328 12.166C16.1048 12.4708 15.5736 12.9444 15.1989 13.5334C14.8238 14.1226 14.6203 14.8044 14.6105 15.5027V15.5275V16.0167C14.6105 16.589 15.0745 17.053 15.6467 17.053C16.2192 17.053 16.683 16.589 16.683 16.0167V15.544C16.6853 15.2234 16.7781 14.9099 16.9505 14.6393C17.1225 14.3689 17.3677 14.1524 17.6571 14.0144C18.8799 13.4084 19.767 12.2862 20.0743 10.9568C20.3819 9.62701 20.0775 8.22959 19.2451 7.14795C18.4126 6.06659 17.1393 5.41485 15.7754 5.37207L15.767 5.37603Z" fill="black"/>
<path d="M15.6398 19.2747C15.0673 19.2747 14.6035 19.7384 14.6035 20.3109V20.6883V20.688C14.6035 21.2605 15.0673 21.7242 15.6398 21.7242C16.212 21.7242 16.6761 21.2605 16.6761 20.688V20.3106V20.3109C16.6761 20.036 16.5668 19.7726 16.3725 19.5783C16.1782 19.3837 15.9145 19.2747 15.6398 19.2747Z" fill="black"/>
</svg>
