<svg width="25" height="24" viewBox="0 0 25 24" fill="none" xmlns="http://www.w3.org/2000/svg">
<path fill-rule="evenodd" clip-rule="evenodd" d="M1.03125 1.5C1.03125 1.22386 1.25511 1 1.53125 1H3.71252C4.34622 1 4.89596 1.4376 5.03808 2.05516L5.34116 3.37211H22.8095C23.757 3.37211 24.4672 4.23976 24.2799 5.1686L23.5447 8.81472C23.3274 9.89223 22.4318 10.7014 21.3379 10.8086L7.27897 12.1866C7.5811 13.2475 8.5549 14 9.68301 14H21.4928C21.7689 14 21.9928 14.2239 21.9928 14.5C21.9928 14.7761 21.7689 15 21.4928 15H9.68301C7.95496 15 6.48554 13.7388 6.22348 12.0308L6.19337 11.8345L4.45543 3.9822L4.06356 2.27943C4.02592 2.11589 3.88034 2 3.71252 2H1.53125C1.25511 2 1.03125 1.77614 1.03125 1.5ZM5.56593 4.37211L7.07749 11.2016L21.2403 9.81342C21.8967 9.74908 22.4341 9.26357 22.5644 8.61706L23.2996 4.97094C23.362 4.66133 23.1253 4.37211 22.8095 4.37211H5.56593ZM9.2742 19C8.39081 19 7.67468 19.7161 7.67468 20.5995C7.67468 21.4829 8.39081 22.199 9.2742 22.199C10.1576 22.199 10.8737 21.4829 10.8737 20.5995C10.8737 19.7161 10.1576 19 9.2742 19ZM6.67468 20.5995C6.67468 19.1638 7.83852 18 9.2742 18C10.7099 18 11.8737 19.1638 11.8737 20.5995C11.8737 22.0352 10.7099 23.199 9.2742 23.199C7.83852 23.199 6.67468 22.0352 6.67468 20.5995ZM16.9126 20.5995C16.9126 19.7161 17.6287 19 18.5121 19C19.3955 19 20.1116 19.7161 20.1116 20.5995C20.1116 21.4829 19.3955 22.199 18.5121 22.199C17.6287 22.199 16.9126 21.4829 16.9126 20.5995ZM18.5121 18C17.0764 18 15.9126 19.1638 15.9126 20.5995C15.9126 22.0352 17.0764 23.199 18.5121 23.199C19.9478 23.199 21.1116 22.0352 21.1116 20.5995C21.1116 19.1638 19.9478 18 18.5121 18Z" fill="black"/>
<path d="M5.03808 2.05516L4.55082 2.16729L4.55082 2.16729L5.03808 2.05516ZM5.34116 3.37211L4.8539 3.48424L4.94316 3.87211H5.34116V3.37211ZM24.2799 5.1686L24.77 5.26743L24.77 5.26743L24.2799 5.1686ZM23.5447 8.81472L24.0348 8.91355L24.0348 8.91355L23.5447 8.81472ZM21.3379 10.8086L21.2891 10.311L21.2891 10.311L21.3379 10.8086ZM7.27897 12.1866L7.23019 11.689L6.63401 11.7474L6.79809 12.3236L7.27897 12.1866ZM6.22348 12.0308L6.7177 11.9549L6.7177 11.9549L6.22348 12.0308ZM6.19337 11.8345L6.68758 11.7586L6.68509 11.7424L6.68155 11.7264L6.19337 11.8345ZM4.45543 3.9822L4.94363 3.87414L4.94269 3.87006L4.45543 3.9822ZM4.06356 2.27943L3.5763 2.39156L3.5763 2.39156L4.06356 2.27943ZM7.07749 11.2016L6.5893 11.3096L6.6851 11.7424L7.12626 11.6992L7.07749 11.2016ZM5.56593 4.37211V3.87211H4.94316L5.07774 4.48016L5.56593 4.37211ZM21.2403 9.81342L21.2891 10.311L21.2891 10.311L21.2403 9.81342ZM22.5644 8.61706L23.0546 8.71589L23.0546 8.71589L22.5644 8.61706ZM23.2996 4.97094L23.7898 5.06977L23.7898 5.06977L23.2996 4.97094ZM1.53125 0.5C0.978965 0.5 0.53125 0.947715 0.53125 1.5H1.53125V0.5ZM3.71252 0.5H1.53125V1.5H3.71252V0.5ZM5.52535 1.94302C5.33098 1.09846 4.57916 0.5 3.71252 0.5V1.5C4.11328 1.5 4.46094 1.77674 4.55082 2.16729L5.52535 1.94302ZM5.82843 3.25997L5.52535 1.94302L4.55082 2.16729L4.8539 3.48424L5.82843 3.25997ZM22.8095 2.87211H5.34116V3.87211H22.8095V2.87211ZM24.77 5.26743C25.0197 4.02898 24.0729 2.87211 22.8095 2.87211V3.87211C23.4412 3.87211 23.9146 4.45054 23.7898 5.06977L24.77 5.26743ZM24.0348 8.91355L24.77 5.26743L23.7898 5.06977L23.0546 8.71589L24.0348 8.91355ZM21.3867 11.3063C22.6994 11.1776 23.7741 10.2066 24.0348 8.91355L23.0546 8.71589C22.8807 9.5779 22.1643 10.2253 21.2891 10.311L21.3867 11.3063ZM7.32774 12.6842L21.3867 11.3063L21.2891 10.311L7.23019 11.689L7.32774 12.6842ZM9.68301 13.5C8.78076 13.5 8.00147 12.8981 7.75984 12.0497L6.79809 12.3236C7.16074 13.597 8.32904 14.5 9.68301 14.5V13.5ZM21.4928 13.5H9.68301V14.5H21.4928V13.5ZM22.4928 14.5C22.4928 13.9477 22.0451 13.5 21.4928 13.5V14.5H22.4928ZM21.4928 15.5C22.0451 15.5 22.4928 15.0523 22.4928 14.5H21.4928V15.5ZM9.68301 15.5H21.4928V14.5H9.68301V15.5ZM5.72927 12.1066C6.02876 14.0587 7.7081 15.5 9.68301 15.5V14.5C8.20182 14.5 6.94232 13.419 6.7177 11.9549L5.72927 12.1066ZM5.69915 11.9103L5.72927 12.1066L6.7177 11.9549L6.68758 11.7586L5.69915 11.9103ZM3.96724 4.09025L5.70518 11.9425L6.68155 11.7264L4.94361 3.87415L3.96724 4.09025ZM3.5763 2.39156L3.96816 4.09433L4.94269 3.87006L4.55082 2.16729L3.5763 2.39156ZM3.71252 2.5C3.6474 2.5 3.5909 2.45503 3.5763 2.39156L4.55082 2.16729C4.46094 1.77674 4.11328 1.5 3.71252 1.5V2.5ZM1.53125 2.5H3.71252V1.5H1.53125V2.5ZM0.53125 1.5C0.53125 2.05228 0.978965 2.5 1.53125 2.5V1.5H0.53125ZM7.56567 11.0935L6.05411 4.26406L5.07774 4.48016L6.5893 11.3096L7.56567 11.0935ZM21.1916 9.3158L7.02872 10.704L7.12626 11.6992L21.2891 10.311L21.1916 9.3158ZM22.0743 8.51823C21.9874 8.94924 21.6291 9.27291 21.1916 9.3158L21.2891 10.311C22.1643 10.2253 22.8807 9.5779 23.0546 8.71589L22.0743 8.51823ZM22.8095 4.87211L22.0743 8.51823L23.0546 8.71589L23.7898 5.06977L22.8095 4.87211ZM22.8095 4.87211L22.8095 4.87211L23.7898 5.06977C23.9146 4.45054 23.4412 3.87211 22.8095 3.87211V4.87211ZM5.56593 4.87211H22.8095V3.87211H5.56593V4.87211ZM8.17468 20.5995C8.17468 19.9923 8.66695 19.5 9.2742 19.5V18.5C8.11467 18.5 7.17468 19.44 7.17468 20.5995H8.17468ZM9.2742 21.699C8.66695 21.699 8.17468 21.2068 8.17468 20.5995H7.17468C7.17468 21.759 8.11467 22.699 9.2742 22.699V21.699ZM10.3737 20.5995C10.3737 21.2068 9.88144 21.699 9.2742 21.699V22.699C10.4337 22.699 11.3737 21.759 11.3737 20.5995H10.3737ZM9.2742 19.5C9.88144 19.5 10.3737 19.9923 10.3737 20.5995H11.3737C11.3737 19.44 10.4337 18.5 9.2742 18.5V19.5ZM9.2742 17.5C7.56238 17.5 6.17468 18.8877 6.17468 20.5995H7.17468C7.17468 19.44 8.11467 18.5 9.2742 18.5V17.5ZM12.3737 20.5995C12.3737 18.8877 10.986 17.5 9.2742 17.5V18.5C10.4337 18.5 11.3737 19.44 11.3737 20.5995H12.3737ZM9.2742 23.699C10.986 23.699 12.3737 22.3113 12.3737 20.5995H11.3737C11.3737 21.759 10.4337 22.699 9.2742 22.699V23.699ZM6.17468 20.5995C6.17468 22.3113 7.56238 23.699 9.2742 23.699V22.699C8.11467 22.699 7.17468 21.759 7.17468 20.5995H6.17468ZM18.5121 18.5C17.3526 18.5 16.4126 19.44 16.4126 20.5995H17.4126C17.4126 19.9923 17.9049 19.5 18.5121 19.5V18.5ZM20.6116 20.5995C20.6116 19.44 19.6716 18.5 18.5121 18.5V19.5C19.1194 19.5 19.6116 19.9923 19.6116 20.5995H20.6116ZM18.5121 22.699C19.6716 22.699 20.6116 21.759 20.6116 20.5995H19.6116C19.6116 21.2068 19.1194 21.699 18.5121 21.699V22.699ZM16.4126 20.5995C16.4126 21.759 17.3526 22.699 18.5121 22.699V21.699C17.9049 21.699 17.4126 21.2068 17.4126 20.5995H16.4126ZM16.4126 20.5995C16.4126 19.44 17.3526 18.5 18.5121 18.5V17.5C16.8003 17.5 15.4126 18.8877 15.4126 20.5995H16.4126ZM18.5121 22.699C17.3526 22.699 16.4126 21.759 16.4126 20.5995H15.4126C15.4126 22.3113 16.8003 23.699 18.5121 23.699V22.699ZM20.6116 20.5995C20.6116 21.759 19.6716 22.699 18.5121 22.699V23.699C20.2239 23.699 21.6116 22.3113 21.6116 20.5995H20.6116ZM18.5121 18.5C19.6716 18.5 20.6116 19.44 20.6116 20.5995H21.6116C21.6116 18.8877 20.2239 17.5 18.5121 17.5V18.5Z" fill="black"/>
</svg>
