<svg width="128" height="110" viewBox="0 0 128 110" fill="none" xmlns="http://www.w3.org/2000/svg">
<path fill-rule="evenodd" clip-rule="evenodd" d="M2.29834 3.00684C2.29834 2.73069 2.5222 2.50684 2.79834 2.50684H14.2382C14.8796 2.50684 15.4338 2.95489 15.5682 3.58205L18.1378 15.5733H114.431C115.371 15.5733 116.079 16.4269 115.906 17.3501L109.893 49.3744C109.689 50.4603 108.797 51.2836 107.698 51.3993L27.2363 59.8689L28.965 71.9693C29.1409 73.2009 30.1957 74.1158 31.4398 74.1158H102.617C102.893 74.1158 103.117 74.3396 103.117 74.6158C103.117 74.8919 102.893 75.1158 102.617 75.1158H31.4398C29.698 75.1158 28.2213 73.835 27.975 72.1107L26.1752 59.5119L17.2447 16.1781L17.2442 16.1761L14.5904 3.79158C14.5548 3.62549 14.408 3.50684 14.2382 3.50684H2.79834C2.5222 3.50684 2.29834 3.28298 2.29834 3.00684ZM18.3471 16.5733L27.0662 58.8813L107.593 50.4048C108.252 50.3354 108.788 49.8414 108.91 49.1898L114.923 17.1656C114.981 16.8578 114.744 16.5733 114.431 16.5733H18.3471ZM41.8474 85.9658C36.1313 85.9658 31.4976 90.5996 31.4976 96.3157C31.4976 102.032 36.1313 106.665 41.8474 106.665C47.5635 106.665 52.1972 102.032 52.1972 96.3157C52.1972 90.5996 47.5635 85.9658 41.8474 85.9658ZM30.4976 96.3157C30.4976 90.0473 35.5791 84.9658 41.8474 84.9658C48.1157 84.9658 53.1972 90.0473 53.1972 96.3157C53.1972 102.584 48.1157 107.665 41.8474 107.665C35.5791 107.665 30.4976 102.584 30.4976 96.3157ZM79.2397 96.3156C79.2397 90.5995 83.8735 85.9657 89.5896 85.9657C95.3056 85.9657 99.9394 90.5995 99.9394 96.3156C99.9394 102.032 95.3056 106.665 89.5896 106.665C83.8735 106.665 79.2397 102.032 79.2397 96.3156ZM89.5896 84.9657C83.3212 84.9657 78.2397 90.0472 78.2397 96.3156C78.2397 102.584 83.3212 107.665 89.5896 107.665C95.8579 107.665 100.939 102.584 100.939 96.3156C100.939 90.0472 95.8579 84.9657 89.5896 84.9657Z" fill="#262C29"/>
<path d="M15.5682 3.58205L17.0349 3.26775V3.26775L15.5682 3.58205ZM18.1378 15.5733L16.6711 15.8876L16.9251 17.0733H18.1378V15.5733ZM115.906 17.3501L114.431 17.0733V17.0733L115.906 17.3501ZM109.893 49.3744L111.367 49.6512V49.6512L109.893 49.3744ZM107.698 51.3993L107.855 52.8911L107.698 51.3993ZM27.2363 59.8689L27.0793 58.3772L25.5313 58.5401L25.7514 60.0811L27.2363 59.8689ZM28.965 71.9693L27.48 72.1814L28.965 71.9693ZM27.975 72.1107L29.4599 71.8986V71.8986L27.975 72.1107ZM26.1752 59.5119L27.6601 59.2998L27.6536 59.2542L27.6443 59.2091L26.1752 59.5119ZM17.2447 16.1781L18.7138 15.8753L18.7113 15.8637L17.2447 16.1781ZM17.2442 16.1761L15.7775 16.4904L15.7776 16.4905L17.2442 16.1761ZM14.5904 3.79158L16.0571 3.47728L16.0571 3.47728L14.5904 3.79158ZM27.0662 58.8813L25.5971 59.1841L25.8715 60.5154L27.2233 60.3731L27.0662 58.8813ZM18.3471 16.5733V15.0733H16.5065L16.878 16.8761L18.3471 16.5733ZM107.593 50.4048L107.436 48.913V48.913L107.593 50.4048ZM108.91 49.1898L107.436 48.913V48.9131L108.91 49.1898ZM114.923 17.1656L116.397 17.4424V17.4424L114.923 17.1656ZM2.79834 1.00684C1.69377 1.00684 0.79834 1.90227 0.79834 3.00684H3.79834C3.79834 3.55912 3.35062 4.00684 2.79834 4.00684V1.00684ZM14.2382 1.00684H2.79834V4.00684H14.2382V1.00684ZM17.0349 3.26775C16.7523 1.94899 15.5869 1.00684 14.2382 1.00684V4.00684C14.1723 4.00684 14.1153 3.96079 14.1015 3.89634L17.0349 3.26775ZM19.6045 15.259L17.0349 3.26775L14.1015 3.89634L16.6711 15.8876L19.6045 15.259ZM114.431 14.0733H18.1378V17.0733H114.431V14.0733ZM117.38 17.6269C117.727 15.7804 116.31 14.0733 114.431 14.0733V17.0733V17.0733L117.38 17.6269ZM111.367 49.6512L117.38 17.6269L114.431 17.0733L108.419 49.0976L111.367 49.6512ZM107.855 52.8911C109.613 52.706 111.041 51.3887 111.367 49.6512L108.419 49.0976C108.337 49.532 107.98 49.8613 107.541 49.9076L107.855 52.8911ZM27.3934 61.3607L107.855 52.8911L107.541 49.9076L27.0793 58.3772L27.3934 61.3607ZM30.4499 71.7572L28.7213 59.6568L25.7514 60.0811L27.48 72.1814L30.4499 71.7572ZM31.4398 72.6158C30.9422 72.6158 30.5203 72.2498 30.4499 71.7572L27.48 72.1814C27.7615 74.152 29.4492 75.6158 31.4398 75.6158V72.6158ZM102.617 72.6158H31.4398V75.6158H102.617V72.6158ZM104.617 74.6158C104.617 73.5112 103.721 72.6158 102.617 72.6158V75.6158C102.065 75.6158 101.617 75.168 101.617 74.6158H104.617ZM102.617 76.6158C103.721 76.6158 104.617 75.7203 104.617 74.6158H101.617C101.617 74.0635 102.065 73.6158 102.617 73.6158V76.6158ZM31.4398 76.6158H102.617V73.6158H31.4398V76.6158ZM26.4901 72.3229C26.842 74.7861 28.9516 76.6158 31.4398 76.6158V73.6158C30.4445 73.6158 29.6007 72.8839 29.4599 71.8986L26.4901 72.3229ZM24.6902 59.724L26.4901 72.3229L29.4599 71.8986L27.6601 59.2998L24.6902 59.724ZM15.7755 16.4808L24.706 59.8147L27.6443 59.2091L18.7138 15.8753L15.7755 16.4808ZM15.7776 16.4905L15.778 16.4925L18.7113 15.8637L18.7109 15.8617L15.7776 16.4905ZM13.1237 4.10587L15.7775 16.4904L18.711 15.8618L16.0571 3.47728L13.1237 4.10587ZM14.2382 5.00684C13.7007 5.00684 13.2363 4.63139 13.1237 4.10588L16.0571 3.47728C15.8733 2.61959 15.1154 2.00684 14.2382 2.00684V5.00684ZM2.79834 5.00684H14.2382V2.00684H2.79834V5.00684ZM0.79834 3.00684C0.79834 4.11141 1.69377 5.00684 2.79834 5.00684V2.00684C3.35062 2.00684 3.79834 2.45455 3.79834 3.00684H0.79834ZM28.5354 58.5785L19.8162 16.2705L16.878 16.8761L25.5971 59.1841L28.5354 58.5785ZM107.436 48.913L26.9092 57.3895L27.2233 60.3731L107.75 51.8966L107.436 48.913ZM107.436 48.9131L107.436 48.913L107.75 51.8966C109.069 51.7578 110.14 50.7698 110.384 49.4666L107.436 48.9131ZM113.449 16.8888L107.436 48.913L110.384 49.4666L116.397 17.4424L113.449 16.8888ZM114.431 18.0733C113.805 18.0733 113.333 17.5043 113.449 16.8888L116.397 17.4424C116.628 16.2114 115.684 15.0733 114.431 15.0733V18.0733ZM18.3471 18.0733H114.431V15.0733H18.3471V18.0733ZM32.9976 96.3157C32.9976 91.428 36.9598 87.4658 41.8474 87.4658V84.4658C35.3029 84.4658 29.9976 89.7712 29.9976 96.3157H32.9976ZM41.8474 105.165C36.9598 105.165 32.9976 101.203 32.9976 96.3157H29.9976C29.9976 102.86 35.3029 108.165 41.8474 108.165V105.165ZM50.6972 96.3157C50.6972 101.203 46.735 105.165 41.8474 105.165V108.165C48.3919 108.165 53.6972 102.86 53.6972 96.3157H50.6972ZM41.8474 87.4658C46.735 87.4658 50.6972 91.428 50.6972 96.3157H53.6972C53.6972 89.7712 48.3919 84.4658 41.8474 84.4658V87.4658ZM41.8474 83.4658C34.7506 83.4658 28.9976 89.2189 28.9976 96.3157H31.9976C31.9976 90.8757 36.4075 86.4658 41.8474 86.4658V83.4658ZM54.6972 96.3157C54.6972 89.2189 48.9442 83.4658 41.8474 83.4658V86.4658C47.2873 86.4658 51.6972 90.8757 51.6972 96.3157H54.6972ZM41.8474 109.165C48.9442 109.165 54.6972 103.412 54.6972 96.3157H51.6972C51.6972 101.756 47.2873 106.165 41.8474 106.165V109.165ZM28.9976 96.3157C28.9976 103.412 34.7506 109.165 41.8474 109.165V106.165C36.4075 106.165 31.9976 101.756 31.9976 96.3157H28.9976ZM89.5896 84.4657C83.0451 84.4657 77.7397 89.7711 77.7397 96.3156H80.7397C80.7397 91.428 84.702 87.4657 89.5896 87.4657V84.4657ZM101.439 96.3156C101.439 89.7711 96.1341 84.4657 89.5896 84.4657V87.4657C94.4772 87.4657 98.4394 91.428 98.4394 96.3156H101.439ZM89.5896 108.165C96.1341 108.165 101.439 102.86 101.439 96.3156H98.4394C98.4394 101.203 94.4772 105.165 89.5896 105.165V108.165ZM77.7397 96.3156C77.7397 102.86 83.0451 108.165 89.5896 108.165V105.165C84.702 105.165 80.7397 101.203 80.7397 96.3156H77.7397ZM79.7397 96.3156C79.7397 90.8757 84.1497 86.4657 89.5896 86.4657V83.4657C82.4928 83.4657 76.7397 89.2188 76.7397 96.3156H79.7397ZM89.5896 106.165C84.1497 106.165 79.7397 101.755 79.7397 96.3156H76.7397C76.7397 103.412 82.4928 109.165 89.5896 109.165V106.165ZM99.4394 96.3156C99.4394 101.755 95.0295 106.165 89.5896 106.165V109.165C96.6864 109.165 102.439 103.412 102.439 96.3156H99.4394ZM89.5896 86.4657C95.0295 86.4657 99.4394 90.8757 99.4394 96.3156H102.439C102.439 89.2188 96.6864 83.4657 89.5896 83.4657V86.4657Z" fill="black"/>
<rect x="97.3765" width="30.3255" height="30.3255" rx="15.1628" fill="#FF0000"/>
<path d="M106.041 15.5957H119.037" stroke="white" stroke-width="2"/>
</svg>
