<svg width="55" height="58" viewBox="0 0 55 58" fill="none" xmlns="http://www.w3.org/2000/svg">
<path fill-rule="evenodd" clip-rule="evenodd" d="M1 0H0V1V9V49.4999V55V56H1H27.5V55.9812C28.9824 57.2404 30.9024 58 32.9998 58C35.0867 58 36.9979 57.2479 38.4773 56H54H55V55V1V0H54H1ZM40.2122 54H53V2H2V8H19.4999C20.0522 8 20.4999 8.44771 20.4999 9V15.5H25.4999H32.9998C33.395 15.5 33.7532 15.7327 33.9137 16.0938L39.7486 29.2224L46.8712 32.0715C47.2509 32.2233 47.4998 32.591 47.4998 32.9999V49.4999C47.4998 50.0522 47.0521 50.4999 46.4998 50.4999H41.4416C41.2923 51.7741 40.8611 52.9621 40.2122 54ZM2 10V48.4999H18.4999V16.5V10H2ZM2 50.4999V54H25.7873C25.1384 52.9621 24.7073 51.7741 24.558 50.4999H19.4999H2ZM45.4998 48.4999H41.4415C40.9465 44.2768 37.3558 41 32.9998 41C28.6437 41 25.053 44.2768 24.558 48.4999H20.4999V17.5H24.4999V27C24.4999 27.5522 24.9476 28 25.4999 28H37.0166L38.086 30.4061C38.1919 30.6442 38.3865 30.8316 38.6284 30.9284L45.4998 33.677V48.4999ZM26.4999 17.5V26H36.1277L32.35 17.5H26.4999ZM32.9998 43C29.4099 43 26.4998 45.9102 26.4998 49.5C26.4998 53.0899 29.4099 56 32.9998 56C36.5896 56 39.4998 53.0899 39.4998 49.5C39.4998 45.9102 36.5896 43 32.9998 43Z" fill="#1A1C1F"/>
</svg>
