<svg width="55" height="56" viewBox="0 0 55 56" fill="none" xmlns="http://www.w3.org/2000/svg">
<path d="M1 1L22.9628 23.4029M1 1V32.3381M1 1H22.9628M43.7419 51.1151H54V1H33.0893M43.7419 51.1151L44.9256 53.3165L43.0844 55H22.0422L19.8065 51.1151M43.7419 51.1151L33.8784 34.5396C33.8784 34.5396 40.0322 38.0622 43.7419 37.777C45.3606 37.6525 47.0164 36.7527 48.0873 36.0481C48.6746 35.6618 48.6001 34.825 47.9826 34.489L34.273 27.0288L24.9355 25.6043L22.9628 23.4029M19.8065 51.1151H1V32.3381M19.8065 51.1151L11.394 35.187M22.9628 23.4029L11.394 35.187M1 32.3381L6.99358 38.2398C7.38753 38.6277 8.02148 38.6223 8.4088 38.2278L11.394 35.187M22.9628 1V12.6547L33.0893 10.4532V1M22.9628 1H33.0893" stroke="black" stroke-width="2" stroke-linejoin="round"/>
</svg>
