<svg width="34" height="34" viewBox="0 0 34 34" fill="none" xmlns="http://www.w3.org/2000/svg">
<path d="M16.2816 10.3101C13.0457 10.6337 10.4569 13.2224 10.1333 16.4584C9.91759 18.5438 10.6367 20.5573 12.1109 22.0314C13.4052 23.3258 15.167 24.0449 17.0007 24.0449C17.2165 24.0449 17.4682 24.0449 17.6839 24.009C20.9198 23.6854 23.5086 21.0966 23.8322 17.8606C24.0479 15.7752 23.3288 13.7618 21.8547 12.2876C20.4165 10.8135 18.367 10.0943 16.2816 10.3101ZM22.43 17.7168C22.1783 20.2696 20.1288 22.3191 17.5401 22.6067C15.8861 22.7865 14.2682 22.2112 13.1176 21.0247C11.967 19.8741 11.3917 18.2561 11.5356 16.6022C11.7873 14.0494 13.8367 12 16.4255 11.7123C16.6052 11.6764 16.785 11.6764 16.9648 11.6764C18.403 11.6764 19.8052 12.2517 20.8479 13.2584C22.0344 14.4809 22.6097 16.0988 22.43 17.7168Z" fill="#262C29" stroke="black" stroke-width="0.5"/>
<path d="M31.5978 14.2315H30.5551C30.0876 14.2315 29.6921 13.9438 29.5843 13.5124C29.2966 12.5416 28.9011 11.5708 28.3618 10.6719C28.1461 10.2764 28.182 9.77303 28.5416 9.41348L29.3326 8.62247C29.8719 8.08315 29.8719 7.18427 29.3326 6.64494L27.391 4.70337C26.8517 4.16405 25.9528 4.16405 25.4135 4.70337L24.5865 5.53034C24.2629 5.85393 23.7596 5.92584 23.364 5.71011C22.5011 5.20674 21.5303 4.84719 20.5955 4.55955C20.164 4.45169 19.8405 4.02022 19.8405 3.55281V2.40225C19.7685 1.64719 19.1573 1 18.3663 1H15.6337C14.8427 1 14.2315 1.64719 14.2315 2.40225V3.58876C14.2315 4.05618 13.9079 4.45169 13.4764 4.59551C12.5056 4.84719 11.5708 5.2427 10.7079 5.74607C10.3124 5.9618 9.80899 5.88989 9.48539 5.56629L8.65843 4.73933C8.1191 4.2 7.22022 4.2 6.6809 4.73933L4.73933 6.6809C4.2 7.22022 4.2 8.1191 4.73933 8.65843L5.53034 9.44944C5.85393 9.77303 5.92584 10.2764 5.71011 10.7079C5.20674 11.6067 4.77528 12.5416 4.48764 13.5483C4.37978 13.9798 3.94831 14.2674 3.51685 14.2674H2.40225C1.61124 14.2674 1 14.9146 1 15.6697V18.4022C1 19.1933 1.64719 19.8045 2.40225 19.8045H3.37303C3.84045 19.8045 4.23595 20.1281 4.37978 20.5955C4.66742 21.6022 5.06292 22.573 5.56629 23.5079C5.78202 23.9034 5.71011 24.4067 5.38652 24.7303L4.73933 25.3775C4.2 25.9169 4.2 26.8157 4.73933 27.3551L6.6809 29.2966C7.22022 29.836 8.1191 29.836 8.65843 29.2966L9.26966 28.6854C9.59326 28.3618 10.1326 28.2899 10.5281 28.5416C11.4629 29.0809 12.4337 29.4764 13.4764 29.764C13.9438 29.9079 14.2315 30.3034 14.2315 30.7708V31.5978C14.2315 32.3888 14.8787 33 15.6337 33H18.3663C19.1573 33 19.7685 32.3528 19.7685 31.5978V30.7708C19.7685 30.3034 20.0921 29.9079 20.5236 29.764C21.5303 29.4764 22.5371 29.0449 23.4719 28.5416C23.9034 28.2899 24.4067 28.3618 24.7303 28.6854L25.3416 29.2966C25.8809 29.836 26.7798 29.836 27.3191 29.2966L29.2607 27.3551C29.8 26.8157 29.8 25.9169 29.2607 25.3775L28.6135 24.7303C28.2899 24.4067 28.218 23.9034 28.4337 23.5079C28.9371 22.573 29.3326 21.6022 29.6202 20.5955C29.7281 20.1281 30.1596 19.8045 30.627 19.8045H31.5978C32.3888 19.8045 33 19.1573 33 18.4022V15.6697C33 14.8427 32.3528 14.2315 31.5978 14.2315ZM31.5618 18.3303H30.627C29.5124 18.3303 28.5416 19.0854 28.218 20.2C27.9663 21.0989 27.6067 21.9618 27.1753 22.7888C26.636 23.7236 26.8157 24.9461 27.6067 25.7371L28.218 26.3483L26.3483 28.2539L25.773 27.6787C24.982 26.8876 23.7596 26.7438 22.7888 27.2831C21.9618 27.7506 21.0989 28.1101 20.164 28.3618C19.0854 28.6494 18.3303 29.6562 18.3303 30.7348V31.5618H15.6337V30.7708C15.6337 29.6562 14.8787 28.6854 13.8 28.3978C12.9011 28.1461 12.0022 27.7865 11.1753 27.3191C10.2045 26.7438 8.94607 26.9236 8.19101 27.7146L7.65169 28.2539L5.74607 26.3483L6.3573 25.7371C7.14831 24.9461 7.29214 23.7596 6.78876 22.7888C6.32135 21.9618 5.99775 21.0989 5.74607 20.2C5.45843 19.1213 4.45169 18.3303 3.33708 18.3303H2.4382V15.6337H3.44494C4.5236 15.6337 5.49438 14.9146 5.81798 13.8719C6.06966 13.009 6.42921 12.1461 6.89663 11.3551C7.43596 10.3843 7.29213 9.1618 6.50112 8.37079L5.74607 7.61573L7.65169 5.71011L8.4427 6.50112C9.19775 7.29213 10.4202 7.43596 11.391 6.93258C12.182 6.50112 13.009 6.17753 13.8719 5.92584C14.9146 5.6382 15.6697 4.66742 15.6697 3.55281V2.4382H18.3663V3.58876C18.3663 4.70337 19.1213 5.67416 20.164 5.9618C21.027 6.21348 21.8539 6.53708 22.6449 6.96854C23.6157 7.50787 24.8022 7.32809 25.5933 6.53708L26.3843 5.74607L28.2899 7.65169L27.5348 8.40674C26.7438 9.19775 26.6 10.4202 27.1393 11.391C27.6067 12.182 27.9663 13.0449 28.218 13.9079C28.5056 14.9506 29.5124 15.6697 30.591 15.6697H31.5978V18.3303H31.5618Z" fill="#262C29" stroke="black" stroke-width="0.5"/>
</svg>
