<svg width="49" height="35" viewBox="0 0 49 35" fill="none" xmlns="http://www.w3.org/2000/svg">
<path d="M48.5753 29.3208V17.8218C48.5749 16.6533 48.2657 15.5054 47.6786 14.495L45.1311 10.0878C44.2217 8.51305 42.5421 7.54219 40.724 7.54037H31.3084V4.07602C31.3084 2.9949 30.8791 1.95826 30.1146 1.19376C29.3502 0.42931 28.3135 0 27.2324 0H4.07602C2.9949 0 1.95826 0.429319 1.19376 1.19376C0.429665 1.9582 0 2.9949 0 4.07602V26.2643C0 27.3455 0.429674 28.3821 1.19376 29.1466C1.9582 29.9107 2.9949 30.3404 4.07602 30.3404H6.58262C6.89821 32.0967 8.02339 33.6015 9.61909 34.4007C11.2144 35.1996 13.0935 35.1996 14.6892 34.4007C16.2845 33.6015 17.41 32.0967 17.7253 30.3404H33.4276C33.7428 32.0967 34.8684 33.6015 36.4637 34.4007C38.0594 35.1996 39.9383 35.1996 41.5338 34.4007C43.1295 33.6015 44.2546 32.0967 44.5702 30.3404H48.5748L48.5753 29.3208ZM40.7136 9.59353C41.8047 9.5946 42.8125 10.1771 43.3581 11.1217L45.8241 15.3658H31.3082V9.59353H40.7136ZM6.57775 28.3073H4.07615C3.5356 28.3073 3.01741 28.0923 2.63502 27.7103C2.25298 27.3282 2.03832 26.8097 2.03832 26.2691V4.08625C2.03832 3.5457 2.25298 3.02751 2.63502 2.64512C3.01742 2.26308 3.53558 2.04842 4.07615 2.04842H27.2325C27.7731 2.04842 28.2916 2.26308 28.6736 2.64512C29.0557 3.02752 29.2707 3.54568 29.2707 4.08625V28.3025H17.7253C17.41 26.5462 16.2845 25.0414 14.6892 24.2422C13.0935 23.4433 11.2145 23.4433 9.61909 24.2422C8.02339 25.0415 6.89823 26.5462 6.58262 28.3025L6.57775 28.3073ZM12.1518 32.9591V32.9587C11.1879 32.9587 10.2636 32.5759 9.58229 31.8943C8.901 31.2127 8.51864 30.2883 8.51891 29.3245C8.51927 28.3606 8.90274 27.4366 9.58475 26.7557C10.2667 26.0748 11.1911 25.6927 12.1549 25.6934C13.1188 25.6945 14.0428 26.0783 14.7233 26.7607C15.4039 27.4427 15.7856 28.3674 15.7842 29.3312C15.7817 30.2929 15.3975 31.2144 14.7166 31.8932C14.0357 32.5724 13.1134 32.9537 12.1518 32.9537V32.9591ZM33.4285 28.3019H31.3089V17.3943H46.5072C46.5072 17.5368 46.5377 17.6797 46.5377 17.8222V28.3022H44.5714C44.2558 26.5458 43.1306 25.0411 41.5349 24.2419C39.9396 23.4429 38.0605 23.4429 36.4648 24.2419C34.8695 25.0411 33.744 26.5458 33.4287 28.3022L33.4285 28.3019ZM39.0025 32.9537H39.0021C38.0386 32.9551 37.1135 32.5734 36.4315 31.8929C35.7492 31.2119 35.3653 30.2882 35.3643 29.3245C35.3636 28.3606 35.7457 27.4363 36.4266 26.7543C37.1076 26.0723 38.0316 25.6888 38.9954 25.6884C39.9592 25.6881 40.8836 26.0705 41.5652 26.7518C42.2469 27.4331 42.63 28.3574 42.63 29.3213C42.63 30.2844 42.2472 31.2084 41.5659 31.8897C40.8847 32.571 39.9606 32.9537 38.9972 32.9537H39.0025Z" fill="black"/>
<path d="M24.104 13.5928C24.104 11.3889 23.2283 9.27546 21.6699 7.71705C20.1115 6.15865 17.998 5.28296 15.7942 5.28296C13.5904 5.28296 11.4765 6.15865 9.9181 7.71705C8.3597 9.27546 7.48438 11.3889 7.48438 13.5928C7.48438 15.7969 8.35971 17.9104 9.9181 19.4688C11.4765 21.0272 13.5904 21.9025 15.7942 21.9025C17.9973 21.9001 20.1094 21.0237 21.6671 19.4656C23.2247 17.908 24.1011 15.7958 24.104 13.5928ZM9.51251 13.5928C9.51251 11.9303 10.1728 10.3352 11.3481 9.15927C12.5238 7.98326 14.118 7.32192 15.781 7.32119C17.4435 7.32013 19.0389 7.97974 20.2155 9.15427C21.3923 10.3292 22.0544 11.9232 22.0561 13.586C22.0579 15.2489 21.3993 16.8442 20.2251 18.0217C19.0509 19.1991 17.4573 19.8619 15.7944 19.8648C14.1298 19.8662 12.5326 19.2062 11.3545 18.0299C10.1764 16.8535 9.5136 15.2578 9.51251 13.5928Z" fill="black"/>
<path d="M19.3559 13.8366C19.3559 13.5665 19.2486 13.3074 19.0574 13.1162C18.8662 12.925 18.6071 12.8177 18.337 12.8177H16.737V10.464C16.737 9.90102 16.2807 9.44507 15.7181 9.44507C15.1552 9.44507 14.6992 9.90104 14.6992 10.464V13.8317C14.6992 14.1021 14.8065 14.3612 14.9974 14.5521C15.1886 14.7433 15.4477 14.8506 15.7181 14.8506H18.337C18.8975 14.8506 19.3531 14.3975 19.3559 13.8366Z" fill="black"/>
</svg>
