<svg width="39" height="44" viewBox="0 0 39 44" fill="none" xmlns="http://www.w3.org/2000/svg">
<path d="M38.3073 24.3662C38.4006 25.4537 38.0091 26.5268 37.2373 27.2986L27.1107 37.4252C25.65 38.8736 23.6731 39.6816 21.616 39.6706H9.11185L5.94603 42.8275C5.51575 43.2577 4.81764 43.2577 4.38741 42.8275C3.95714 42.3969 3.95714 41.6991 4.38741 41.2689L7.86552 37.7907V37.7904C8.07252 37.5844 8.35292 37.4686 8.645 37.4692H21.6162C23.1029 37.4753 24.5301 36.8854 25.5786 35.8313L35.7052 25.7047C36.0642 25.3217 36.1975 24.7791 36.0562 24.2736C35.9149 23.768 35.5197 23.3731 35.0142 23.2318C34.5086 23.0905 33.966 23.2235 33.583 23.5825L25.5918 31.6571L25.5654 31.6792C24.8774 32.361 23.9493 32.7452 22.981 32.7492H15.2538C14.6461 32.7492 14.1531 32.2562 14.1531 31.6484C14.1531 31.0403 14.6461 30.5477 15.2538 30.5477H22.9853C23.3237 30.5459 23.6517 30.4298 23.9155 30.2179C24.1794 30.006 24.3636 29.7108 24.4383 29.3809C24.5356 28.9405 24.4281 28.4795 24.1456 28.1276C23.8633 27.776 23.4364 27.5714 22.9853 27.5714H9.64929C8.4153 27.5677 7.23101 28.0576 6.36034 28.9317L4.41412 30.8733V30.8736C4.21418 31.1061 3.92642 31.2449 3.61987 31.2562C3.31368 31.2676 3.01607 31.1506 2.79952 30.9335C2.58301 30.7163 2.46691 30.4187 2.4792 30.1123C2.49148 29.8057 2.63092 29.5183 2.86433 29.3193L4.81055 27.3777H4.81024C6.09187 26.0887 7.83564 25.3657 9.65355 25.37H22.9856C23.7156 25.3676 24.4297 25.5835 25.0359 25.9901C25.6425 26.3964 26.1136 26.9747 26.3891 27.6507L31.9983 22.0415C32.6688 21.371 33.5708 20.9834 34.5186 20.9583C35.4664 20.9331 36.3877 21.2728 37.0925 21.9066C37.7977 22.5405 38.2326 23.421 38.3078 24.366L38.3073 24.3662ZM29.5015 9.83676C29.2303 9.14543 28.6852 8.5972 27.9958 8.32233L25.1647 7.20408L24.6186 4.21029V4.20998C24.4857 3.47811 24.0542 2.83502 23.4279 2.43389C22.8014 2.0331 22.0367 1.91087 21.3165 2.09667L18.3623 2.84051L16.1609 0.740422C15.6234 0.227841 14.8974 -0.0387446 14.156 0.00456078C13.4146 0.048172 12.7249 0.397368 12.251 0.969497L10.3137 3.31623L7.29777 2.91114C6.56098 2.81194 5.8162 3.02355 5.24163 3.49528C4.667 3.96702 4.31474 4.65654 4.26867 5.39882L4.07949 8.43688L1.39374 9.88094C0.746635 10.2344 0.273995 10.8392 0.0872659 11.5523C-0.0994629 12.2657 0.0163213 13.0247 0.407283 13.6496L2.04083 16.2208L0.719888 18.9637V18.9641C0.397715 19.6342 0.369159 20.4081 0.640345 21.1007C0.911837 21.7929 1.45912 22.3411 2.15076 22.6139L5.54962 23.9566L5.54993 23.9569C6.11534 24.1805 6.75474 23.9035 6.97866 23.3384C7.20225 22.773 6.92522 22.1332 6.36012 21.9096L2.96126 20.5669L2.96096 20.5666C2.83811 20.5184 2.74106 20.4213 2.69253 20.2985C2.64401 20.1759 2.64892 20.0384 2.70574 19.9195L4.28644 16.6262L4.28614 16.6259C4.45076 16.2841 4.42741 15.8815 4.22471 15.5605L2.26528 12.4786C2.19464 12.3671 2.17314 12.231 2.20662 12.1033C2.2401 11.9755 2.32517 11.8674 2.44157 11.8048L5.66022 10.0702H5.65991C5.98915 9.89359 6.20628 9.5619 6.23668 9.18969L6.46549 5.54419H6.4658C6.47286 5.41182 6.53521 5.28897 6.63748 5.20513C6.73852 5.11913 6.87151 5.08044 7.00295 5.09948L10.6267 5.5881H10.6264C11.0029 5.64092 11.3797 5.49412 11.6214 5.20051L13.9506 2.38268C14.0348 2.28102 14.1579 2.21898 14.2897 2.2113C14.4217 2.20393 14.551 2.25154 14.6462 2.34306L17.2881 4.86606C17.563 5.12896 17.9546 5.23061 18.3225 5.13449L21.8448 4.22293V4.22324C21.9726 4.19038 22.108 4.21219 22.2189 4.28313C22.3301 4.35407 22.4066 4.46802 22.4305 4.59731L23.1172 8.18573C23.1851 8.56042 23.4416 8.87337 23.7954 9.01339L27.1942 10.3561L27.1945 10.3564C27.3143 10.4089 27.4077 10.5084 27.4516 10.6319C27.4958 10.7551 27.4872 10.8914 27.4276 11.0081L25.8472 14.3014C25.6825 14.6435 25.7059 15.0462 25.9086 15.3668L27.868 18.4487C27.9387 18.5602 27.9601 18.6963 27.9267 18.824C27.8932 18.9518 27.8081 19.0599 27.692 19.1226L24.4734 20.8571C24.2071 20.9904 24.0059 21.2257 23.9163 21.5095C23.8263 21.7936 23.8555 22.1016 23.9964 22.3635C24.1377 22.6258 24.3791 22.8196 24.6656 22.9007C24.9519 22.9818 25.259 22.9437 25.517 22.7944L28.7356 21.0599H28.7353C29.3876 20.7064 29.8639 20.0985 30.0507 19.3809C30.2377 18.6631 30.1185 17.8999 29.7214 17.2734L28.0879 14.7022L29.4088 11.9593L29.4091 11.959C29.731 11.2894 29.7614 10.5164 29.4927 9.82358L29.5015 9.83676ZM15.0601 20.8439C14.6655 20.8446 14.2797 20.7281 13.9512 20.5098C13.6228 20.2911 13.3667 19.98 13.2153 19.6155C12.9794 19.055 12.3339 18.792 11.7734 19.0279C11.2129 19.2638 10.9496 19.9094 11.1855 20.4699C11.5046 21.2337 12.043 21.886 12.7325 22.3446C13.422 22.8031 14.2318 23.0469 15.0601 23.0454C17.4554 23.0454 19.2606 21.3504 19.2606 19.083C19.2606 17.9647 18.7499 15.97 15.3464 15.1776H15.3111C13.0657 14.6669 13.0657 13.7204 13.0657 13.4166C13.0657 12.2235 14.1004 11.6556 15.0647 11.6556L15.0644 11.6553C15.4585 11.6544 15.8439 11.7699 16.1722 11.988C16.5005 12.2057 16.757 12.5159 16.9093 12.8792C17.0159 13.1575 17.2306 13.3801 17.5042 13.4975C17.7779 13.6145 18.0874 13.6157 18.362 13.5005C18.6365 13.3857 18.8531 13.1642 18.9618 12.8872C19.0705 12.6099 19.0622 12.3006 18.9391 12.0297C18.4385 10.8369 17.4145 9.94287 16.1652 9.60809V8.83323C16.1652 8.22513 15.6723 7.73251 15.0645 7.73251C14.4564 7.73251 13.9637 8.22513 13.9637 8.83323V9.62126C13.0906 9.80522 12.3078 10.2843 11.7463 10.9781C11.1849 11.6716 10.8797 12.5374 10.8818 13.4296C10.8818 14.5478 11.3926 16.5426 14.796 17.3349H14.8314C17.0767 17.85 17.0767 18.7922 17.0767 19.0959C17.05 20.3069 16.0153 20.8487 15.0513 20.8487L15.0601 20.8439Z" fill="black"/>
</svg>
